<svg xmlns="http://www.w3.org/2000/svg" width="52" height="52" viewBox="0 0 52 52">
  <g id="그룹_7" data-name="그룹 7" transform="translate(-7871 -693)">
    <rect id="사각형_68" data-name="사각형 68" width="52" height="52" transform="translate(7871 693)" fill="none"/>
    <path id="패스_1" data-name="패스 1" d="M0,45.078S3.568,49.718,8.922,49s13.562.357,6.781-12.491S9.279,17.241,13.2,11.173,26.766,1.18,34.975.11s13.2,6.068,13.2,6.068C46.4,7.6,44.254,2.252,37.83,3.679s-7.851,2.854-5.353,8.564S38.9,25.382,38.9,25.382A19.06,19.06,0,0,1,28.551,46.148s5.711-6.424,2.5-11.777-5-8.989-5-8.989,1.428,7.562,2.855,9.7-1.428,7.138-1.428,7.138a16.743,16.743,0,0,1-16.417,7.54C-.089,48.246,0,45.078,0,45.078" transform="translate(7873 694)" fill="#6aae27"/>
  </g>
</svg>
