<svg width="152" height="50" viewBox="0 0 152 50" fill="none" xmlns="http://www.w3.org/2000/svg">
<g clip-path="url(#clip0_41_224)">
<path d="M44.4638 38.0177C43.4252 37.6497 43.2284 37.4043 43.2284 36.9822C43.2284 36.5601 43.5272 36.2246 44.2379 36.2246C44.759 36.2246 45.1052 36.3942 45.4842 36.7044L45.8559 36.2535C45.4186 35.9071 44.974 35.7051 44.2743 35.7051C43.3049 35.7051 42.649 36.1957 42.649 37.0183C42.649 37.7615 43.028 38.1223 44.1504 38.5191C45.1016 38.8583 45.3895 39.1288 45.3895 39.6051C45.3895 40.1498 44.9594 40.489 44.2707 40.489C43.735 40.489 43.2831 40.2436 42.8895 39.872L42.5068 40.2978C42.915 40.709 43.5455 41.0121 44.2525 41.0121C45.3348 41.0121 45.9726 40.3843 45.9726 39.5798C45.9726 38.7753 45.6191 38.4325 44.4675 38.0213L44.4638 38.0177Z" fill="white"/>
<path d="M48.3264 36.9935C47.8198 36.9935 47.3606 37.1162 47.0181 37.3002L47.2295 37.7476C47.5465 37.5636 47.8818 37.4517 48.2899 37.4517C48.8584 37.4517 49.1354 37.7295 49.1354 38.3068V38.7614C48.9058 38.6351 48.5523 38.5377 48.1624 38.5377C47.3934 38.5377 46.6719 38.9057 46.6719 39.7715C46.6719 40.7023 47.3096 41.0054 47.9146 41.0054C48.4758 41.0054 48.8585 40.7456 49.1354 40.4534V40.926H49.6894V38.2346C49.6894 37.3399 49.1646 36.9863 48.3264 36.9863V36.9935ZM49.1318 39.9844C48.8949 40.3055 48.5159 40.5616 48.013 40.5616C47.5356 40.5616 47.2149 40.3127 47.2149 39.7391C47.2149 39.2556 47.5574 38.9814 48.1296 38.9814C48.6034 38.9814 48.8767 39.068 49.1318 39.2051V39.988V39.9844Z" fill="white"/>
<path d="M55.2806 38.6698V40.9283H55.8345V38.5796C55.8345 37.454 55.3389 36.9922 54.5444 36.9922C53.9103 36.9922 53.5933 37.2844 53.3637 37.6524C53.1778 37.2844 52.8462 36.9922 52.2959 36.9922C51.8367 36.9922 51.5087 37.2123 51.3083 37.5442V37.0752H50.7471V40.9319H51.3083V38.6734C51.3083 37.8184 51.6399 37.4684 52.1756 37.4684C52.7113 37.4684 53.0138 37.7895 53.0138 38.6734V40.9319H53.5714V38.6734C53.5714 37.8184 53.9103 37.4684 54.4387 37.4684C55 37.4684 55.2769 37.7895 55.2769 38.6734L55.2806 38.6698Z" fill="white"/>
<path d="M58.0679 38.6859C57.4083 38.39 57.2115 38.2638 57.2115 37.9355C57.2115 37.6541 57.4447 37.4592 57.8565 37.4592C58.2683 37.4592 58.5234 37.5675 58.8259 37.8056L59.1357 37.3979C58.8405 37.1562 58.425 36.9902 57.893 36.9902C57.1823 36.9902 56.6758 37.3871 56.6758 37.9715C56.6758 38.5885 57.0001 38.823 57.7836 39.1549C58.4724 39.4471 58.702 39.6239 58.702 39.9414C58.702 40.3166 58.4506 40.5367 57.9148 40.5367C57.5285 40.5367 57.1641 40.3815 56.8544 40.111L56.5264 40.5114C56.8981 40.8072 57.3646 41.0057 57.9003 41.0057C58.5745 41.0057 59.2341 40.6774 59.2341 39.9161C59.2341 39.227 58.8041 39.0142 58.0643 38.6823L58.0679 38.6859Z" fill="white"/>
<path d="M62.4849 39.3271C62.4849 40.1713 62.0585 40.5285 61.5228 40.5285C60.896 40.5285 60.6008 40.1569 60.6008 39.3271V37.0723H60.0469V39.4209C60.0469 40.5285 60.5899 41.0083 61.4098 41.0083C61.9018 41.0083 62.2626 40.781 62.4849 40.4563V40.929H63.0425V37.0723H62.4849V39.3271Z" fill="white"/>
<path d="M66.9787 40.9283V38.5796C66.9787 37.4684 66.4357 36.9922 65.6121 36.9922C65.1238 36.9922 64.7594 37.2195 64.5407 37.5442V37.0752H63.9795V40.9319H64.5407V38.6734C64.5407 37.8292 64.9598 37.4684 65.4992 37.4684C66.1223 37.4684 66.4212 37.8436 66.4212 38.6734V40.9319H66.9787V40.9283Z" fill="white"/>
<path d="M68.7316 41.9257L68.9101 42.3442C70.3569 42.3009 70.8817 41.7417 70.8817 40.58V37.0696H70.3241V37.5025C70.0508 37.1923 69.7155 36.9902 69.2272 36.9902C68.4109 36.9902 67.7549 37.6937 67.7549 39.0611C67.7549 40.4284 68.3744 41.0057 69.1506 41.0057C69.6791 41.0057 70.0508 40.7459 70.3241 40.4537V40.6521C70.3241 41.5504 70.0289 41.8896 68.7279 41.922L68.7316 41.9257ZM69.2964 40.5294C68.6805 40.5294 68.3088 40.0244 68.3088 39.0539C68.3088 38.0184 68.6259 37.4665 69.2746 37.4665C69.7374 37.4665 70.1127 37.7226 70.3278 38.0437V39.9739C70.0544 40.313 69.7119 40.5294 69.2964 40.5294Z" fill="white"/>
<path d="M77.0259 38.3214C77.0259 36.5572 76.0201 35.7852 74.6571 35.7852H73.2832V40.9298H74.5551C75.9435 40.9298 77.0259 40.1866 77.0259 38.3214ZM73.8626 36.3047H74.6134C75.8087 36.3047 76.4465 37.0262 76.4465 38.3395C76.4465 39.8186 75.7467 40.4067 74.6279 40.4067H73.8626V36.3047Z" fill="white"/>
<path d="M78.5087 37.5481V37.0719H77.9512V40.9286H78.5087V38.6629C78.5087 37.9269 78.8149 37.4976 79.3579 37.4976C79.6166 37.4976 79.7843 37.5553 79.941 37.6455L80.0794 37.0899C79.9483 37.0322 79.7624 36.9961 79.4708 36.9961C79.0518 36.9961 78.6837 37.245 78.5087 37.5517V37.5481Z" fill="white"/>
<path d="M83.4107 40.5606L83.1483 40.1637C82.7912 40.3982 82.5252 40.5317 82.0696 40.5317C81.4355 40.5317 81.0383 40.0086 80.9873 39.1896H83.582C83.6002 39.0994 83.6075 39.02 83.6075 38.8902C83.6075 37.7898 83.0536 36.9961 82.0368 36.9961C81.1112 36.9961 80.4297 37.7573 80.4297 38.9804C80.4297 40.4992 81.297 41.0115 82.0113 41.0115C82.598 41.0115 82.9406 40.8564 83.4107 40.5642V40.5606ZM82.0368 37.4687C82.7183 37.4687 83.0463 37.9918 83.09 38.7386H80.9873C81.0529 37.8764 81.4574 37.4687 82.0368 37.4687Z" fill="white"/>
<path d="M85.4656 41.0093C86.0231 41.0093 86.4058 40.7495 86.6791 40.4573V40.9299H87.2367V38.2385C87.2367 37.3438 86.7119 36.9902 85.8737 36.9902C85.3672 36.9902 84.908 37.1129 84.5654 37.2969L84.7731 37.7443C85.0938 37.5603 85.4255 37.4484 85.8336 37.4484C86.4058 37.4484 86.6791 37.7262 86.6791 38.3035V38.758C86.4495 38.6318 86.0997 38.5344 85.7097 38.5344C84.9371 38.5344 84.2119 38.9024 84.2119 39.7682C84.2119 40.699 84.8533 41.0021 85.4619 41.0021L85.4656 41.0093ZM85.6806 38.9781C86.1543 38.9781 86.4313 39.0647 86.6827 39.2018V39.9847C86.4459 40.3058 86.0669 40.5619 85.5639 40.5619C85.0902 40.5619 84.7658 40.313 84.7658 39.7394C84.7658 39.2559 85.1121 38.9817 85.6806 38.9817V38.9781Z" fill="white"/>
<path d="M92.8275 38.6698V40.9283H93.3851V38.5796C93.3851 37.454 92.8895 36.9922 92.095 36.9922C91.4646 36.9922 91.1439 37.2844 90.9179 37.6524C90.732 37.2844 90.4004 36.9922 89.8501 36.9922C89.3873 36.9922 89.063 37.2123 88.8625 37.5442V37.0752H88.3086V40.9319H88.8625V38.6734C88.8625 37.8184 89.1978 37.4684 89.7335 37.4684C90.2692 37.4684 90.5753 37.7895 90.5753 38.6734V40.9319H91.1293V38.6734C91.1293 37.8184 91.4682 37.4684 92.0003 37.4684C92.5615 37.4684 92.8385 37.7895 92.8385 38.6734L92.8275 38.6698Z" fill="white"/>
<path d="M44.4638 45.6683C43.4216 45.3003 43.2321 45.0586 43.2321 44.6329C43.2321 44.2072 43.5309 43.8789 44.2415 43.8789C44.7627 43.8789 45.1125 44.0448 45.4879 44.3551L45.8596 43.9078C45.4223 43.565 44.974 43.3594 44.278 43.3594C43.3049 43.3594 42.6526 43.8428 42.6526 44.6726C42.6526 45.4158 43.0316 45.773 44.1541 46.1698C45.1052 46.5126 45.3931 46.7795 45.3931 47.2594C45.3931 47.8005 44.9631 48.1397 44.2707 48.1397C43.735 48.1397 43.2831 47.8943 42.8895 47.5227L42.5068 47.9485C42.915 48.3597 43.5455 48.6592 44.2525 48.6592C45.3348 48.6592 45.9689 48.035 45.9689 47.2269C45.9689 46.4188 45.6154 46.0796 44.4675 45.6683H44.4638Z" fill="white"/>
<path d="M48.334 45.1205C48.7276 45.1205 48.9863 45.2576 49.267 45.5101L49.6022 45.0988C49.2961 44.8318 48.8916 44.6406 48.3705 44.6406C47.5541 44.6406 46.6904 45.2431 46.6904 46.6682C46.6904 48.0139 47.474 48.6561 48.3304 48.6561C48.877 48.6561 49.256 48.4504 49.584 48.1185L49.2487 47.7686C48.9827 48.0247 48.7312 48.1762 48.3522 48.1762C47.6635 48.1762 47.2517 47.5665 47.2517 46.6177C47.2517 45.6688 47.7218 45.1132 48.3304 45.1132L48.334 45.1205Z" fill="white"/>
<path d="M51.9823 44.6439C51.4939 44.6439 51.1258 44.8712 50.9035 45.1959V43.3848H50.3496V48.5872H50.9035V46.3287C50.9035 45.4845 51.3299 45.1237 51.8693 45.1237C52.4961 45.1237 52.7913 45.4953 52.7913 46.3287V48.5872H53.3489V46.2313C53.3489 45.1237 52.8059 44.6439 51.9823 44.6439Z" fill="white"/>
<path d="M55.8337 44.6445C54.8862 44.6445 54.1318 45.348 54.1318 46.6577C54.1318 47.9673 54.8571 48.6636 55.8046 48.6636C56.7521 48.6636 57.5137 47.9384 57.5137 46.6288C57.5137 45.3192 56.7812 44.6445 55.8337 44.6445ZM55.8228 48.1837C55.145 48.1837 54.6894 47.657 54.6894 46.6432C54.6894 45.6294 55.145 45.1244 55.8228 45.1244C56.5006 45.1244 56.9562 45.6294 56.9562 46.6432C56.9562 47.657 56.497 48.1837 55.8228 48.1837Z" fill="white"/>
<path d="M58.9101 43.3809H58.3525V48.5833H58.9101V43.3809Z" fill="white"/>
<path d="M61.4575 44.6445C60.9509 44.6445 60.4918 44.7708 60.1528 44.9548L60.3606 45.4058C60.6813 45.2218 61.0165 45.1099 61.4247 45.1099C61.9932 45.1099 62.2702 45.3913 62.2702 45.9614V46.4196C62.0406 46.2933 61.6907 46.1959 61.3008 46.1959C60.5282 46.1959 59.8066 46.5639 59.8066 47.4333C59.8066 48.3641 60.4444 48.6636 61.053 48.6636C61.6106 48.6636 61.9932 48.4074 62.2702 48.1152V48.5878H62.8278V45.9C62.8278 44.9981 62.2993 44.6481 61.4611 44.6481L61.4575 44.6445ZM62.2665 47.6354C62.0333 47.9528 61.647 48.2126 61.1477 48.2126C60.674 48.2126 60.3533 47.9637 60.3533 47.39C60.3533 46.903 60.6958 46.636 61.268 46.636C61.7418 46.636 62.0151 46.7154 62.2665 46.8561V47.6354Z" fill="white"/>
<path d="M64.4423 45.2031V44.7197H63.8848V48.58H64.4423V46.3143C64.4423 45.582 64.7412 45.1454 65.2878 45.1454C65.5502 45.1454 65.7178 45.2031 65.8745 45.2933L66.0167 44.7341C65.8818 44.6764 65.6996 44.6367 65.4081 44.6367C64.9926 44.6367 64.6173 44.8857 64.446 45.1995L64.4423 45.2031Z" fill="white"/>
<path d="M68.1516 46.3402C67.492 46.0443 67.2916 45.9109 67.2916 45.5898C67.2916 45.312 67.5285 45.1135 67.9366 45.1135C68.3448 45.1135 68.6072 45.2254 68.9096 45.4599L69.2194 45.0558C68.9206 44.8141 68.5088 44.6445 67.9731 44.6445C67.2661 44.6445 66.7522 45.0414 66.7522 45.6295C66.7522 46.2175 67.0802 46.4809 67.8601 46.8092C68.5489 47.1014 68.7784 47.2818 68.7784 47.5957C68.7784 47.9745 68.527 48.191 67.9949 48.191C67.605 48.191 67.2442 48.0358 66.9308 47.7652L66.6064 48.1693C66.9782 48.4652 67.4446 48.66 67.9803 48.66C68.6545 48.66 69.3142 48.3281 69.3142 47.574C69.3142 46.8813 68.8841 46.6721 68.148 46.3402H68.1516Z" fill="white"/>
<path d="M71.858 44.6439C71.3623 44.6439 71.0016 44.8712 70.7793 45.1959V43.3848H70.2217V48.5872H70.7793V46.3287C70.7793 45.4845 71.202 45.1237 71.745 45.1237C72.3682 45.1237 72.6634 45.4953 72.6634 46.3287V48.5872H73.2209V46.2313C73.2209 45.1237 72.6816 44.6439 71.858 44.6439Z" fill="white"/>
<path d="M74.8752 44.7207H74.3213V48.581H74.8752V44.7207Z" fill="white"/>
<path d="M74.6096 43.248C74.3836 43.248 74.2051 43.4248 74.2051 43.6485C74.2051 43.8722 74.3836 44.0381 74.6096 44.0381C74.8173 44.0381 74.9959 43.8578 74.9959 43.6485C74.9959 43.4248 74.8173 43.248 74.6096 43.248Z" fill="white"/>
<path d="M77.7291 44.6445C77.2043 44.6445 76.8326 44.9043 76.5556 45.1965V44.7239H75.998V50.0021H76.5556V48.1513C76.829 48.4579 77.1642 48.6636 77.6562 48.6636C78.4689 48.6636 79.1249 47.9565 79.1249 46.5927C79.1249 45.229 78.5053 44.6445 77.7291 44.6445ZM77.6088 48.1837C77.1496 48.1837 76.7706 47.9276 76.5556 47.6029V45.6764C76.829 45.3408 77.1715 45.1208 77.587 45.1208C78.2065 45.1208 78.5782 45.6258 78.5782 46.5963C78.5782 47.6318 78.2575 48.1801 77.6125 48.1801L77.6088 48.1837Z" fill="white"/>
<path d="M82.0726 43.959H84.5434V43.4395H81.4932V48.5841H82.0726V46.185H83.4975V45.6654H82.0726V43.959Z" fill="white"/>
<path d="M86.2348 44.6445C85.2873 44.6445 84.5293 45.348 84.5293 46.6577C84.5293 47.9673 85.2582 48.6636 86.2057 48.6636C87.1532 48.6636 87.9149 47.9384 87.9149 46.6288C87.9149 45.3192 87.1896 44.6445 86.2348 44.6445ZM86.2239 48.1837C85.5461 48.1837 85.0978 47.657 85.0978 46.6432C85.0978 45.6294 85.5497 45.1244 86.2239 45.1244C86.8981 45.1244 87.3609 45.6294 87.3609 46.6432C87.3609 47.657 86.9017 48.1837 86.2239 48.1837Z" fill="white"/>
<path d="M90.9869 46.9792C90.9869 47.8234 90.5678 48.1842 90.0248 48.1842C89.4016 48.1842 89.1028 47.8126 89.1028 46.9792V44.7207H88.5488V47.073C88.5488 48.1805 89.0918 48.6604 89.9154 48.6604C90.4001 48.6604 90.7646 48.4367 90.9869 48.112V48.5846H91.5481V44.7243H90.9869V46.9828V46.9792Z" fill="white"/>
<path d="M94.1141 44.6442C93.6258 44.6442 93.2613 44.8715 93.039 45.1962V44.7236H92.4814V48.5839H93.039V46.3255C93.039 45.4812 93.4618 45.1205 94.0048 45.1205C94.6279 45.1205 94.9231 45.4921 94.9231 46.3255V48.5839H95.4807V46.228C95.4807 45.1205 94.9377 44.6406 94.1141 44.6406V44.6442Z" fill="white"/>
<path d="M98.829 45.1595C98.552 44.8492 98.2204 44.64 97.7284 44.64C96.9121 44.64 96.2598 45.3435 96.2598 46.7144C96.2598 48.0854 96.8756 48.659 97.6555 48.659C98.1839 48.659 98.552 48.4029 98.8253 48.1106V48.5833H99.3829V43.3809H98.8253V45.1595H98.829ZM98.829 47.6272C98.552 47.9627 98.2131 48.1828 97.7976 48.1828C97.1818 48.1828 96.81 47.6777 96.81 46.7072C96.81 45.6682 97.1271 45.1198 97.7758 45.1198C98.235 45.1198 98.6103 45.376 98.829 45.7007V47.6236V47.6272Z" fill="white"/>
<path d="M101.745 44.6445C101.242 44.6445 100.783 44.7708 100.44 44.9548L100.644 45.4058C100.965 45.2218 101.3 45.1099 101.709 45.1099C102.277 45.1099 102.55 45.3913 102.55 45.9614V46.4196C102.321 46.2933 101.971 46.1959 101.577 46.1959C100.808 46.1959 100.087 46.5639 100.087 47.4333C100.087 48.3641 100.728 48.6636 101.337 48.6636C101.894 48.6636 102.277 48.4074 102.55 48.1152V48.5878H103.108V45.9C103.108 44.9981 102.583 44.6481 101.741 44.6481L101.745 44.6445ZM102.554 47.6354C102.317 47.9528 101.942 48.2126 101.432 48.2126C100.962 48.2126 100.644 47.9637 100.644 47.39C100.644 46.903 100.983 46.636 101.556 46.636C102.029 46.636 102.306 46.7154 102.554 46.8561V47.6354Z" fill="white"/>
<path d="M104.886 43.3809H104.325V44.7193H103.844V45.1847H104.325V47.7859C104.325 48.4245 104.587 48.6554 105.072 48.6554C105.363 48.6554 105.571 48.6121 105.786 48.5255L105.826 48.0493C105.648 48.1215 105.502 48.1575 105.276 48.1575C104.981 48.1575 104.886 48.0385 104.886 47.6957V45.1847H105.852V44.7193H104.886V43.3809Z" fill="white"/>
<path d="M107.117 43.248C106.887 43.248 106.705 43.4248 106.705 43.6485C106.705 43.8722 106.887 44.0381 107.117 44.0381C107.325 44.0381 107.5 43.8578 107.5 43.6485C107.5 43.4248 107.321 43.248 107.117 43.248Z" fill="white"/>
<path d="M107.383 44.7207H106.825V48.581H107.383V44.7207Z" fill="white"/>
<path d="M109.926 44.6445C108.979 44.6445 108.221 45.348 108.221 46.6577C108.221 47.9673 108.946 48.6636 109.897 48.6636C110.848 48.6636 111.603 47.9384 111.603 46.6288C111.603 45.3192 110.874 44.6445 109.926 44.6445ZM109.912 48.1837C109.237 48.1837 108.782 47.657 108.782 46.6432C108.782 45.6294 109.237 45.1244 109.912 45.1244C110.586 45.1244 111.049 45.6294 111.049 46.6432C111.049 47.657 110.59 48.1837 109.912 48.1837Z" fill="white"/>
<path d="M114.041 44.6442C113.552 44.6442 113.188 44.8715 112.962 45.1962V44.7236H112.404V48.5839H112.962V46.3255C112.962 45.4812 113.385 45.1205 113.928 45.1205C114.551 45.1205 114.85 45.4921 114.85 46.3255V48.5839H115.404V46.228C115.404 45.1205 114.861 44.6406 114.041 44.6406V44.6442Z" fill="white"/>
<path d="M63.9468 25.6582C61.7092 25.6618 59.8652 27.3935 59.8652 29.5654C59.8652 31.7373 61.7092 33.451 63.9468 33.4582C66.2063 33.451 68.0321 31.7156 68.0321 29.5654C68.0321 27.4152 66.2063 25.6618 63.9468 25.6582ZM63.8922 31.676C62.7224 31.676 61.8404 30.7307 61.8404 29.5654C61.8404 28.4001 62.7843 27.4368 63.9505 27.4368C65.1167 27.4368 66.0277 28.3821 66.0277 29.5654C66.0277 30.7488 65.0729 31.676 63.8958 31.676H63.8922Z" fill="white"/>
<path d="M45.2183 22.9704C45.8415 23.5801 46.5558 24.114 47.2591 24.4568L47.332 24.4964L48.5383 23.0858L48.4217 23.0209C47.2773 22.4076 46.3809 21.6319 45.7941 20.6542C45.211 19.6909 44.9122 18.5725 44.9122 17.234V15.9785H42.7548V17.1005C42.7548 18.5509 42.4231 19.6909 41.8 20.6903C41.1039 21.7978 40.0726 22.689 38.7533 23.5151L38.6367 23.5873L39.945 24.9294L40.0179 24.8897C40.7978 24.4712 41.625 23.8254 42.343 23.1038C42.9661 22.4725 43.5055 21.7978 43.8335 21.1593C44.1505 21.787 44.6352 22.4256 45.2183 22.974V22.9704Z" fill="white"/>
<path d="M42.8828 32.5357H51.9134V26.4277H42.8828V32.5357ZM44.9127 28.1522H49.8835V30.8112H44.9127V28.1522Z" fill="white"/>
<path d="M72.9912 32.5357H83.2025V26.4277H72.9912V32.5357ZM74.9992 28.1522H81.1982V30.8112H74.9992V28.1522Z" fill="white"/>
<path d="M51.9494 15.6191H49.9414V25.7281H51.9494V21.2545H54.3V19.4578H51.9494V15.6191Z" fill="white"/>
<path d="M93.5822 23.488C94.2419 24.0544 94.9962 24.5307 95.7069 24.8373L95.7798 24.8698L96.8658 23.4159L96.7491 23.3581C95.7142 22.835 94.7922 22.1856 94.1289 21.3919C93.4547 20.5838 93.0538 19.6097 93.0538 18.4371V18.0944H96.0421V16.3555H87.9299V18.0944H90.9146V18.5129C90.9146 19.5808 90.5575 20.5766 89.9635 21.4388C89.2674 22.4742 88.2506 23.3076 87.263 23.8488L87.1318 23.9173L88.4657 25.2847L88.5385 25.2486C89.2565 24.8445 90.0509 24.2348 90.7288 23.5493C91.2718 22.9865 91.7601 22.3913 92.0589 21.796C92.4197 22.3732 92.9736 22.9505 93.5859 23.488H93.5822Z" fill="white"/>
<path d="M108.104 28.1913H115.404V32.5314H117.43V26.4668H108.104V28.1913Z" fill="white"/>
<path d="M113.141 21.2396C113.141 20.2835 112.707 19.4032 112.066 18.7322H114.07V17.0113H110.244V15.1172H108.068V17.0113H104.15V18.7322H106.198C105.572 19.4032 105.138 20.2763 105.138 21.2396C105.138 23.3718 106.913 25.1035 109.132 25.1107C111.352 25.1035 113.137 23.3718 113.141 21.2396ZM107.073 21.1602C107.073 19.9805 108.079 18.9811 109.132 18.9811C110.185 18.9811 111.188 19.9841 111.191 21.1602C111.191 22.3219 110.185 23.3249 109.132 23.3285C108.075 23.3249 107.077 22.3219 107.073 21.1602Z" fill="white"/>
<path d="M117.43 15.6191H115.426V25.7642H117.43V21.893H119.788V20.0964H117.43V15.6191Z" fill="white"/>
<path d="M100.422 15.6191H98.418V25.7642H100.422V21.2545H102.777V19.4578H100.422V15.6191Z" fill="white"/>
<path d="M66.3991 18.628H63.2432V20.4066H66.3991V26.0853H68.4071V15.6191H66.3991V18.628Z" fill="white"/>
<path d="M61.3009 23.2337C61.9278 23.8398 62.6603 24.3738 63.36 24.7346L63.4365 24.7779L64.6428 23.3672L64.5261 23.3023C63.3818 22.707 62.5036 21.9349 61.9132 20.9717C61.3155 20.0156 61.0167 18.8539 61.0167 17.5154V15.9785H58.8556V17.3855C58.8556 18.8359 58.5276 19.9723 57.919 20.9536C57.2266 22.0792 56.1734 22.9776 54.8542 23.7965L54.7412 23.8687L56.0568 25.2144L56.1224 25.1711C56.8986 24.749 57.7077 24.1393 58.4256 23.443C59.0743 22.8044 59.6136 22.1081 59.9416 21.4407C60.2514 22.0504 60.7251 22.6709 61.3009 23.2373V23.2337Z" fill="white"/>
<path d="M96.1185 25.6582C93.8809 25.6618 92.0368 27.3935 92.0332 29.5654C92.0368 31.7156 93.8772 33.451 96.1185 33.4582C98.3743 33.451 100.204 31.7156 100.204 29.5654C100.204 27.4152 98.3743 25.6618 96.1185 25.6582ZM96.0602 31.676C94.894 31.676 94.0048 30.7307 94.0048 29.5654C94.0048 28.4001 94.945 27.4368 96.1185 27.4368C97.2919 27.4368 98.1921 28.3821 98.1957 29.5654C98.1957 30.7271 97.2373 31.676 96.0602 31.676Z" fill="white"/>
<path d="M75.4365 21.4166H77.4445V16.2539H72.0254V17.9712H75.4365V21.4166Z" fill="white"/>
<path d="M81.4641 21.4166H83.4757V16.2539H78.0566V17.9712H81.4641V21.4166Z" fill="white"/>
<path d="M132.648 20.1902H130.961V15.9005H129.062V32.0994H130.961V22.1384H132.648V32.5323H134.616V15.6191H132.648V20.1902Z" fill="white"/>
<path d="M126.279 22.4301C125.827 21.4524 125.641 20.3592 125.641 19.0171V18.3786H127.919V16.5566H121.301V18.3786H123.651V19.0532C123.651 20.3231 123.484 21.3622 123.079 22.3255C122.609 23.433 121.818 24.4288 120.557 25.4967L120.47 25.5761L121.716 26.7991L121.793 26.7414C122.419 26.2832 123.075 25.6193 123.622 24.9339C124.085 24.3566 124.475 23.7577 124.719 23.231C124.97 23.7433 125.364 24.3314 125.823 24.8798C126.355 25.5219 126.957 26.1316 127.532 26.496L127.609 26.5465L128.658 25.3055L128.575 25.2297C127.445 24.2556 126.745 23.3861 126.286 22.4265L126.279 22.4301Z" fill="white"/>
<path d="M70.3457 23.8199H77.0111V25.7465H79.1868V23.8199H85.9579V22.0918H70.3457V23.8199Z" fill="white"/>
<path d="M146.049 23.2679H139.263V18.1557H144.431V16.3555H137.229V25.0141H146.049V23.2679Z" fill="white"/>
<path d="M142.212 27.1426H140.182V32.5326H149.675V30.7576H142.212V27.1426Z" fill="white"/>
<path d="M149.627 20.3017V15.6152H147.623V28.0945H149.627V22.0984H152V20.3017H149.627Z" fill="white"/>
<path d="M42.5693 10.3976L37.3689 8.26539L42.5693 6.1332L41.6436 3.92886L36.4468 6.06104L38.6006 0.912764L36.3703 0L34.2202 5.14828L32.0664 0L29.8361 0.912764L31.9899 6.06104L26.7931 3.92886L25.8711 6.1332L31.0679 8.26539L25.8711 10.3976L26.7931 12.6019L31.9899 10.4697L29.8361 15.618L32.0664 16.5308L34.2202 11.3861L36.3703 16.5308L38.6006 15.6144L36.4468 10.4697L41.6436 12.6019L42.5693 10.3976Z" fill="#009FE3"/>
<path d="M8.92102 24.7593H12.3795V15.6172H0.553711V18.6982H8.92102V24.7593Z" fill="#009FE3"/>
<path d="M22.4122 24.7593H25.8707V15.6172H14.0449V18.6982H22.4122V24.7593Z" fill="#009FE3"/>
<path d="M0 29.4892H22.4124V34.1974H25.8709V26.4082H0V29.4892Z" fill="#009FE3"/>
<path d="M8.36719 48.5852H25.8707V35.7812H8.36719V48.5852ZM11.822 38.8659H22.4123V45.5078H11.822V38.8659Z" fill="#009FE3"/>
</g>
<defs>
<clipPath id="clip0_41_224">
<rect width="152" height="50" fill="white"/>
</clipPath>
</defs>
</svg>
