<svg width="160" height="25" viewBox="0 0 160 25" fill="none" xmlns="http://www.w3.org/2000/svg">
<g clip-path="url(#clip0_14_1056)">
<path d="M159.866 12.6775L155.178 12.6184V15.7656C155.178 19.814 154.461 22.7839 154.118 23.6704C153.894 23.9216 153.372 24.0693 153.058 23.9807C152.864 23.2715 152.461 21.0699 152.461 17.4056V3.25078C152.461 2.65976 150.774 1.43341 150.147 1.24132C149.983 1.18222 150.52 0.561656 150.684 0.561656C151.968 0.561656 155.342 1.32998 155.268 1.92099C155.208 2.31993 155.178 2.79274 155.178 3.30988V11.4068L158.731 10.0179C159.045 9.89972 160.448 12.6775 159.881 12.6775M150.132 14.2141C150.625 14.8938 149.296 17.775 148.818 17.0953C148.131 16.1349 146.25 13.2981 144.563 11.4068C142.309 14.5244 139.502 17.0362 136.979 18.366C136.665 18.3365 136.292 17.8784 136.292 17.5977C139.412 14.8495 142.936 10.0327 144.414 5.6444C144.503 5.39322 143.443 4.62489 142.981 4.34416C142.831 4.25551 143.473 3.7827 143.637 3.7827C144.488 3.7827 146.847 4.7431 147.415 5.14203C147.728 5.36367 147.758 5.51142 147.609 5.8808C146.982 7.49132 146.146 9.02797 145.205 10.4464C147.325 11.8944 149.669 13.564 150.132 14.2141ZM134.978 12.9435L130.261 12.8548V15.7656C130.261 19.814 129.604 22.7839 129.23 23.6704C129.007 23.9216 128.484 24.0693 128.2 23.9807C127.976 23.2715 127.603 21.0699 127.603 17.4056V3.25078C127.603 2.65976 125.916 1.49251 125.289 1.24132C125.14 1.18222 125.662 0.561656 125.827 0.561656C127.11 0.561656 130.41 1.32998 130.35 1.92099C130.32 2.31993 130.261 2.79274 130.261 3.30988V11.658L133.829 10.2987C134.172 10.1509 135.576 12.9287 134.978 12.9287M119.646 14.3323C120.96 14.3323 121.93 13.431 121.93 12.0422C121.93 10.6533 121.019 9.72241 119.646 9.72241C118.272 9.72241 117.361 10.6533 117.361 12.0422C117.361 13.431 118.272 14.3323 119.646 14.3323ZM115.182 2.52679C115.152 2.40858 115.301 2.02442 115.465 2.0392C116.406 2.2165 117.361 2.37903 118.556 2.52679L121.467 2.83707C121.721 2.86662 122.841 4.38849 122.094 4.38849H117.69C116.943 4.38849 115.227 2.77797 115.167 2.52679M112.256 5.96946C112.226 5.8808 112.405 5.57052 112.48 5.60007C112.972 5.77738 114.719 5.8217 116.376 5.79215L122.333 5.73305C124.05 5.7035 124.558 4.8613 124.826 4.8613C125.11 4.8613 126.2 6.35362 126.2 7.04806C126.2 7.16627 126.08 7.24014 125.886 7.24014C125.603 7.24014 123.945 7.15149 122.632 7.15149L116.227 7.18104C115.197 7.18104 114.51 7.40267 114.196 7.6834C113.39 7.46177 112.39 6.26497 112.285 5.95468M126.483 17.5534C123.916 18.7206 118.989 19.4003 115.615 19.814C114.704 19.9322 114.152 20.0948 113.614 20.405C112.748 20.1834 111.494 18.9275 111.375 18.4547C111.405 18.3069 111.524 18.1739 111.599 18.0853C112.539 18.0853 113.913 18.1148 115.57 18.0262C116.6 17.9671 117.57 17.908 118.451 17.8341L118.287 15.3962C116.107 15.0268 114.764 13.7561 114.764 11.9978C114.764 10.077 116.451 8.77679 119.108 8.62903C119.138 8.51083 119.168 8.43695 119.168 8.31875C119.168 8.09712 119.108 7.83116 118.795 7.60953C118.795 7.07761 120.512 7.60953 120.512 7.89026C120.512 8.00846 120.362 8.3483 120.288 8.62903C122.885 8.80634 124.528 10.1066 124.528 11.9978C124.528 13.7561 123.124 15.0268 120.974 15.3962L120.855 17.5977C123.572 17.2874 125.409 16.8589 126.633 16.46C126.887 16.3713 126.782 17.3909 126.469 17.5386M93.9519 3.76792L93.9221 8.49605H100.581L100.745 3.76792H93.937H93.9519ZM89.6373 2.71887C89.6074 2.57111 90.0105 2.0983 90.2046 2.0983C90.6973 2.0983 92.3993 2.1574 93.519 2.34948H99.8641C100.67 2.34948 101.088 2.23128 101.402 1.95054C101.745 1.83234 103.97 2.17218 103.925 2.54156L102.984 8.2301C103.387 8.59948 103.925 9.33825 103.925 9.73719C103.925 9.85539 103.805 9.92927 103.611 9.92927C103.328 9.92927 102.268 9.89972 100.67 9.89972H93.6384C93.4593 10.21 93.2353 10.4907 92.9815 10.7862C92.7277 11.0374 92.2649 11.1556 91.9215 11.067C91.6379 10.3873 91.399 9.08707 91.2049 6.73778L90.9511 3.79747C90.9212 3.51674 90.1151 2.89617 89.6373 2.71887ZM105.478 22.8134C105.478 22.9316 105.388 23.0055 105.164 23.0055H102.223L93.4742 23.0351C91.0407 23.0351 90.5629 22.2076 90.5629 20.5971V18.1887C90.5629 17.7602 89.6522 17.0215 89.1297 16.9476C88.9655 16.918 89.5328 16.2088 89.7567 16.2088C90.757 16.2088 92.25 16.4305 92.9965 16.7112C93.1457 16.7703 93.3697 16.8589 93.31 17.1692C93.2503 17.5386 93.2503 18.0705 93.2503 18.5286V20.6267C93.2503 21.4984 93.5638 21.6166 94.3401 21.6166L101.685 21.5871C103.238 21.5871 103.746 20.7301 103.94 20.7301C104.343 20.7301 105.478 22.1485 105.478 22.7987M108.254 13.6527C108.254 13.8004 108.135 13.8743 107.941 13.8743H98.8787V15.5144C98.8787 17.184 98.2517 18.632 97.8187 19.2821C97.5948 19.5333 97.1021 19.6515 96.7886 19.5628C96.5348 18.7945 96.1615 17.775 96.1615 15.9133V13.8743H90.0703C89.0401 13.8743 88.3534 14.155 88.0398 14.4358C87.2336 14.2141 85.6063 12.9582 85.6063 12.6775C85.6063 12.5593 85.7556 12.249 85.8303 12.2786C86.3229 12.4559 88.0697 12.4706 89.7269 12.4706L103.746 12.4411C105.522 12.4411 106.12 11.4511 106.343 11.4511C106.657 11.4511 108.254 12.9582 108.254 13.6379M68.3179 6.4866C68.3179 8.30397 69.5123 9.51556 71.3187 9.51556C73.1252 9.51556 74.4987 8.30397 74.4987 6.4866C74.4987 4.66922 73.2148 3.45764 71.3486 3.45764C69.4824 3.45764 68.3179 4.684 68.3179 6.4866ZM65.6007 6.57525C65.6007 4.03388 67.661 2.33471 70.841 2.1574C70.8709 2.06875 70.9007 1.99487 70.9007 1.90622C70.9007 1.65504 70.841 1.3743 70.4678 1.10835C70.4678 0.546881 72.3787 1.10835 72.3787 1.41863C72.3787 1.53683 72.2294 1.87667 72.1548 2.1574C75.1855 2.37903 77.1861 4.0782 77.1861 6.57525C77.1861 9.20527 74.872 10.934 71.4083 10.934C67.9447 10.934 65.6007 9.20527 65.6007 6.57525ZM82.71 14.3028C82.71 14.421 82.5906 14.4949 82.3965 14.4949H76.1858V15.8542C76.1858 19.681 75.499 22.6509 75.1258 23.5226C74.9018 23.7738 74.3793 23.892 74.0956 23.8329C73.8717 23.1237 73.4686 20.9222 73.4686 17.4943V14.4949L69.0942 14.5244V15.3814C69.0942 19.1787 68.4075 22.1485 68.0641 23.0203C67.8402 23.2715 67.3176 23.3897 67.0041 23.3306C66.81 22.6213 66.4069 20.4198 66.4069 17.0215V14.5244H64.5258C63.4957 14.5244 62.8089 14.8052 62.4954 15.0859C61.6892 14.8643 60.0619 13.6083 60.0619 13.2981C60.0619 13.2094 60.2112 12.8991 60.2858 12.9287C60.7785 13.0912 62.5252 13.1208 64.1824 13.1208L78.2013 13.0617C79.9779 13.0617 80.5751 12.0717 80.799 12.0717C81.1125 12.0717 82.71 13.5936 82.71 14.2732M42.9974 5.34889C42.9974 6.90031 44.1768 8.00846 45.9385 8.00846C47.7002 8.00846 48.8796 6.90031 48.8796 5.34889C48.8796 3.79747 47.7002 2.74842 45.9385 2.74842C44.1768 2.74842 42.9974 3.82702 42.9974 5.34889ZM40.2802 5.46709C40.2802 3.23601 42.2509 1.61071 45.3115 1.41863C45.3413 1.27088 45.401 1.16745 45.401 1.01969C45.401 0.768512 45.3115 0.502554 44.9681 0.251372C44.9681 -0.339644 46.8791 0.251372 46.8791 0.532105C46.8791 0.70941 46.685 1.09357 46.5656 1.40385C49.5962 1.59593 51.6267 3.22123 51.6267 5.45232C51.6267 7.80161 49.3126 9.47123 45.9385 9.47123C42.5644 9.47123 40.2802 7.80161 40.2802 5.45232M53.8362 23.2715C53.8362 23.4192 53.7168 23.4635 53.5227 23.4635H42.4002C40.4892 23.4635 39.8174 22.8134 39.7726 21.3359L39.7129 19.4446C39.7129 19.1639 38.9664 18.7945 38.4887 18.5877C38.4588 18.4399 38.8918 17.9671 39.1157 17.9671C39.6532 17.9671 41.6985 18.0853 42.4301 18.3365H49.6709L49.7008 16.0463H42.4599C41.5791 16.0463 40.9968 16.2679 40.6833 16.5634C39.6532 16.4157 38.8171 15.0859 38.8022 14.8938C38.7723 14.7461 38.9216 14.4653 39.056 14.4949C39.9667 14.6574 41.1163 14.6574 42.7734 14.6574H48.7005C49.5067 14.6574 49.9247 14.5687 50.2382 14.2585C50.5816 14.2289 52.8658 14.4801 52.7912 14.8495L52.0746 18.1887C52.612 18.5877 52.9554 19.2673 52.9554 19.4299C52.9554 19.5776 52.8658 19.681 52.7315 19.681C52.4776 19.681 50.8503 19.6515 49.5216 19.6515H42.4301V20.8926C42.4301 21.853 42.7137 22.0451 43.9977 22.0451H50.2681C52.0447 22.0451 52.2985 21.3063 52.4926 21.3063C52.8957 21.3063 53.8362 22.6361 53.8362 23.2271M57.1058 12.3229C57.1058 12.4411 56.9864 12.515 56.7923 12.515H52.7613L38.9366 12.5445C37.9363 12.5445 37.2495 12.8252 36.936 13.0764C36.0999 12.8548 34.6219 11.6284 34.5025 11.3182C34.4726 11.2295 34.6518 10.9192 34.7264 10.9488C35.2191 11.1261 36.9509 11.1556 38.623 11.1556L52.612 11.0965C54.3588 11.0965 54.956 10.1066 55.2098 10.1066C55.5233 10.1066 57.0909 11.6284 57.0909 12.3081M25.5149 12.2638C25.5149 12.515 25.3208 12.515 24.634 12.7218C24.3504 12.8105 24.2011 13.2537 23.9771 13.963C23.4845 15.4553 21.9169 17.8637 18.6622 17.8637C15.4076 17.8637 13.6907 15.1154 13.5712 14.9677C13.407 14.7461 13.1383 14.5392 12.9143 14.5392C12.765 14.5392 12.6605 14.5983 12.571 14.6574C11.3915 15.4553 10.1076 16.3566 10.1076 18.4251C10.1076 19.7845 11.2572 21.3359 13.198 21.3359C14.8552 21.3359 15.945 19.7845 16.2884 18.7059C16.4079 18.3365 16.378 18.1887 16.5721 18.1887C16.8259 18.1887 16.9155 18.7502 17.2588 18.7502C17.5425 18.7502 17.4529 18.6024 17.8262 18.6024C18.1695 18.6024 18.2591 19.0605 18.5428 19.0605C18.9459 19.0605 19.4833 18.7206 19.7521 18.7206C19.8417 18.7206 19.976 18.7206 19.976 18.8093C19.976 18.957 19.7222 19.09 19.4833 19.2969C18.9907 19.7254 18.6324 19.9765 18.2591 20.5971C16.9453 22.7987 15.4225 23.1976 14.6462 23.434C14.3625 23.5226 14.0788 23.6556 13.9594 23.9216C13.5265 24.882 13.2727 25.0002 13.1532 25.0002C13.0039 25.0002 12.9591 24.8377 12.9293 24.4683C12.8994 24.0693 12.6755 23.6113 11.8991 23.4783C9.92843 23.1089 7.49492 21.129 7.49492 18.0114C7.49492 15.2041 9.64477 14.1107 10.7346 13.0321C10.8839 12.8843 10.9884 12.7218 10.9884 12.4706V12.382C10.9884 12.249 10.9586 12.0717 10.7794 11.8501C9.68956 10.4907 8.86843 9.58943 7.37548 9.58943C5.74816 9.58943 4.31492 10.9192 4.31492 12.84C4.31492 14.9086 5.34506 15.6178 6.3752 15.869C6.71858 15.9576 6.83802 15.9872 6.83802 16.0906C6.83802 16.3122 6.61407 16.2679 6.61407 16.6078C6.61407 16.8589 6.80816 16.8294 6.80816 17.2283C6.80816 17.5091 6.55435 17.5977 6.55435 18.0262C6.55435 18.366 6.71858 18.4842 6.71858 18.6763C6.71858 18.9275 6.86787 18.8979 6.86787 19.4446C6.86787 19.5924 6.92759 19.6958 6.80816 19.6958C6.68872 19.6958 6.55435 19.5037 6.3752 19.2378C5.9721 18.6468 5.53914 18.2774 5.22562 18.041C2.73239 16.2531 2.64281 15.47 2.01577 14.2437C1.86647 13.963 1.82169 13.4754 1.5231 13.3424C0.612393 12.8843 -0.0146484 12.7514 -0.0146484 12.0126C-0.0146484 11.6728 0.388449 12.0126 1.01549 12.0126C1.35887 12.0126 1.76197 12.0717 1.95605 11.3625C2.38901 9.85539 4.18056 7.447 7.33069 7.447C10.6749 7.447 12.3321 10.1952 12.4515 10.343C12.6755 10.6533 12.8845 10.7715 13.1084 10.7715C13.2577 10.7715 13.3622 10.7715 13.616 10.5498C15.736 8.68813 15.9003 7.86071 15.9003 6.7821C15.9003 5.42277 14.8104 3.8418 12.8696 3.8418C10.9287 3.8418 10.0031 5.36367 9.74928 6.50137C9.6597 6.87076 9.59998 7.06284 9.43576 7.06284C9.18196 7.06284 9.18196 6.723 8.89829 6.723C8.43548 6.723 8.39069 6.91508 8.15182 6.91508C7.8383 6.91508 7.8383 6.35362 7.37548 6.35362C7.25604 6.35362 7.00224 6.50137 6.83802 6.50137C6.40506 6.50137 6.3752 6.59002 6.18112 6.59002C5.95717 6.59002 5.7183 6.47182 5.7183 6.30929C5.7183 6.14676 5.8676 6.02856 6.31548 5.80693C6.91266 5.49664 7.46506 5.27501 7.74872 4.63967C8.62956 2.68932 10.5853 2.06875 11.3318 1.78802C11.6155 1.66981 11.7648 1.56638 11.8991 1.30043C12.4963 0.221821 12.765 0.103618 12.9293 0.103618C13.0935 0.103618 13.0786 0.384351 13.1532 0.724186C13.2428 1.12312 13.2428 1.43341 13.8997 1.59593C15.7659 2.08352 18.498 3.7827 18.498 6.88553C18.498 9.98837 15.4076 11.9535 15.2583 12.0717C14.9149 12.3229 14.7955 12.5297 14.7955 12.7218C14.7955 12.8696 14.885 13.0321 14.9746 13.2094C15.7211 14.687 17.005 15.6474 18.498 15.6474C20.2746 15.6474 21.6481 14.0073 21.6481 12.3081C21.6481 10.6089 20.4986 9.58943 19.4983 9.27915C19.125 9.16095 18.9608 9.16095 18.9608 8.96887C18.9608 8.74724 19.2146 8.82111 19.2146 8.48128C19.2146 8.23009 19.0952 8.2892 19.0952 7.89026C19.0952 7.60953 19.4386 7.52088 19.4386 7.09239C19.4386 6.75255 19.2743 6.63435 19.2743 6.44227C19.2743 6.19109 19.1848 6.22064 19.1848 5.67395C19.1848 5.52619 19.125 5.42277 19.2445 5.42277C19.3938 5.42277 19.5281 5.61485 19.7073 5.8808C20.1104 6.47182 20.4239 6.92986 20.7374 7.12194C22.9918 8.54038 23.4845 9.44168 24.007 10.7124C24.1264 10.9931 24.2309 11.4807 24.5743 11.6728C24.858 11.8501 25.485 12.0422 25.485 12.2638" fill="white"/>
</g>
<defs>
<clipPath id="clip0_14_1056">
<rect width="160" height="25" fill="white"/>
</clipPath>
</defs>
</svg>
