<svg width="107" height="36" viewBox="0 0 107 36" fill="none" xmlns="http://www.w3.org/2000/svg">
<path d="M85.1866 8.66857C85.1866 8.97013 85.2304 9.28266 85.3511 9.57874C85.883 10.8947 87.2374 11.7061 88.9592 11.0208C89.3705 10.8563 100.76 6.26703 100.76 6.26703C100.76 6.26703 96.2742 17.6387 96.1042 18.0609C95.4517 19.6893 96.2358 21.1642 97.5683 21.6577C97.8645 21.7674 98.1715 21.8222 98.4731 21.8167C99.5643 21.8112 100.524 21.1697 100.996 19.8867C101.067 19.6948 106.676 4.29316 106.797 3.9258C106.868 3.70649 107 3.19109 107 2.83469C107 2.07256 106.72 1.35429 106.177 0.811479C105.646 0.274148 104.933 0 104.181 0C103.814 0 103.518 0.0657956 103.068 0.208353C102.8 0.29608 88.3396 5.67487 87.1058 6.13544C85.872 6.59601 85.1866 7.58294 85.192 8.66857" fill="white"/>
<path d="M58.0924 17.3534V17.0244H49.3243V19.2669H54.4185C53.0915 23.4669 48.3482 25.9342 48.3482 25.9342L49.6149 27.7052C49.6149 27.7052 58.0924 24.2071 58.0924 17.3479V17.3534Z" fill="white"/>
<path d="M55.3233 32.2457V27.8867H52.2141V32.7995C52.2141 34.3347 53.4369 35.4422 55.1149 35.4422H64.7494V33.2052H56.409C55.6523 33.2052 55.3342 32.9036 55.3178 32.2457H55.3233Z" fill="white"/>
<path d="M57.7415 21.159V23.4015H61.4429V28.8077H64.552V16.7891H61.4429V21.159H57.7415Z" fill="white"/>
<path d="M84.534 25.797H87.6432V16.6953H84.534V19.53H81.2932V21.7451H84.534V25.797Z" fill="white"/>
<path d="M14.7945 27.7168H2.96109V32.7995C2.96109 34.3347 4.18392 35.4423 5.86187 35.4423H15.4855V28.4077C15.4855 28.0238 15.1729 27.7168 14.7945 27.7168ZM12.3763 33.2052H7.15599C6.39926 33.2052 6.07573 32.9092 6.06476 32.2457V29.9648H12.3763V33.2052Z" fill="white"/>
<path d="M15.6938 17.0583V16.9541H2.79111V19.1966H12.4421C12.4421 19.3447 12.4421 19.5311 12.4421 19.712C12.4421 21.7956 12.3379 23.1663 12.2831 23.7256H0V25.9681H18.9236V23.7256H15.0523C15.2387 23.0237 15.6993 20.8525 15.6993 17.0583H15.6938Z" fill="white"/>
<path d="M35.0178 28.846C37.6005 28.2812 39.5088 26.3457 39.5088 24.0539C39.5088 22.8202 38.955 21.6907 38.0447 20.8189H41.3458V18.5764H35.0178V16.46H31.9141V18.5764H25.5861V20.8189H28.8872C27.9769 21.6907 27.4231 22.8147 27.4231 24.0539C27.4231 26.3512 29.3314 28.2812 31.9196 28.846V31.1159H24.0124V33.3585H42.9305V31.1159H35.0233V28.846H35.0178ZM30.6145 23.9826C30.6145 22.4528 31.8922 21.2027 33.4605 21.2027C35.0288 21.2027 36.3064 22.4474 36.3064 23.9826C36.3064 25.5178 35.0288 26.7625 33.4605 26.7625C31.8922 26.7625 30.6145 25.5178 30.6145 23.9826Z" fill="white"/>
<path d="M78.5899 25.6058H81.6003C81.4742 24.8766 80.372 18.9879 77.5041 16.9482H74.0331L71.3626 25.6771H74.4827L76.2594 19.3936C77.7564 21.1482 78.4857 25.0301 78.5844 25.6058H78.5899Z" fill="white"/>
<path d="M79.2095 33.2819C78.4199 33.2819 78.2773 33.0791 78.2773 32.4101V32.1305H87.6487V27.4152C87.6487 27.0094 87.3525 26.6914 86.9303 26.6914H75.223V28.8517H84.6711V30.0086H75.3052V32.7994C75.3052 34.4169 76.4678 35.4422 78.206 35.4422H87.8516V33.2819H79.2095Z" fill="white"/>
</svg>
