<svg width="46" height="46" viewBox="0 0 46 46" fill="none" xmlns="http://www.w3.org/2000/svg">
<path d="M42.3439 20.7003C42.3143 20.6623 42.2974 20.6158 42.2974 20.5694V17.4471C42.2974 17.3119 42.2847 17.1809 42.2636 17.0499C41.0668 9.89269 33.8481 9.15331 30.7991 9.19556C30.7356 9.20401 30.6764 9.16176 30.6468 9.13218C30.6172 9.10261 30.5834 9.05613 30.5834 8.98431V6.32253C30.5834 5.53245 30.1859 4.80574 29.5262 4.37479C28.858 3.94384 28.0207 3.88046 27.2933 4.20579C20.3368 7.31964 18.1081 12.9432 17.4865 15.1106C17.4738 15.1106 17.4569 15.1106 17.4484 15.1106H17.44C13.1434 15.0177 9.62076 16.2852 6.96924 18.8624C2.41895 23.2861 2.01721 30.0673 2.00029 32.0403C1.97915 34.7993 3.11249 38.7455 6.36874 40.8031C8.73269 42.2945 11.2573 42.3875 13.6678 41.0819C16.6407 39.4722 18.4887 36.2823 18.4887 32.7586V20.7341H16.3743V32.7586C16.3743 35.5049 14.9534 37.985 12.6613 39.2229C10.9106 40.1693 9.22324 40.1017 7.49785 39.0159C5.13813 37.5244 4.09782 34.4486 4.11474 32.0572C4.12742 30.2912 4.47842 24.2325 8.44512 20.3792C10.678 18.2076 13.6974 17.1513 17.4104 17.2231H17.44H17.4654C17.8206 17.2105 26.1092 17.1133 28.7988 27.4646C29.0525 28.4406 29.9025 29.1377 30.909 29.2011L36.8929 29.556C36.9859 29.5602 37.0578 29.6109 37.0621 29.6067L37.079 29.7208C37.4088 31.977 38.0262 36.1809 33.5521 38.9018C32.3003 39.6623 30.8583 39.9961 29.3739 39.8609C27.657 39.7046 25.2423 39.1976 23.4746 37.6596L22.0875 39.2525C24.2823 41.1622 27.1622 41.7833 29.1879 41.965C29.467 41.9903 29.7461 42.003 30.0209 42.003C31.6618 42.003 33.2518 41.5594 34.6558 40.7059C40.3225 37.2583 39.519 31.7615 39.1765 29.4124L39.1596 29.3025C39.0116 28.2927 38.115 27.5111 37.0198 27.4477L31.0359 27.0928C30.9471 27.0886 30.8667 27.0252 30.8456 26.9365C28.6254 18.3977 22.8318 16.0232 19.6221 15.3641C20.2607 13.353 22.3032 8.75616 28.1645 6.13663C28.2617 6.09438 28.3378 6.11973 28.3844 6.15353C28.4478 6.19156 28.4774 6.25071 28.4774 6.32676V8.98853C28.4774 9.61384 28.7227 10.1969 29.1625 10.6363C29.6023 11.0715 30.1816 11.3123 30.8033 11.3123H30.8202C33.9242 11.2827 39.2864 12.0517 40.183 17.4006C40.183 17.4175 40.183 17.4344 40.183 17.4513V20.5736C40.183 21.0975 40.3648 21.6129 40.6947 22.0228L42.0437 23.7086L39.4006 26.2647L40.8723 27.7815L43.6887 25.0606C44.3823 24.3972 44.4499 23.3283 43.8494 22.5805L42.3439 20.7003Z" fill="#1D1D1D"/>
<path d="M34.6006 19.5807C34.6006 20.5524 35.3914 21.3425 36.364 21.3425C37.3367 21.3425 38.1275 20.5524 38.1275 19.5807C38.1275 18.6089 37.3367 17.8188 36.364 17.8188C35.3914 17.8188 34.6006 18.6089 34.6006 19.5807Z" fill="#1D1D1D"/>
<path d="M26.1851 27.9757C26.1851 27.0039 25.3943 26.2139 24.4217 26.2139C23.449 26.2139 22.6582 27.0039 22.6582 27.9757C22.6582 28.9475 23.449 29.7375 24.4217 29.7375C25.3943 29.7375 26.1851 28.9475 26.1851 27.9757Z" fill="#1D1D1D"/>
</svg>
