<?xml version="1.0" encoding="UTF-8"?>
<svg id="Layer_1" xmlns="http://www.w3.org/2000/svg" version="1.1" xmlns:xlink="http://www.w3.org/1999/xlink" viewBox="0 0 1000 1000">
  <!-- Generator: Adobe Illustrator 29.3.0, SVG Export Plug-In . SVG Version: 2.1.0 Build 146)  -->
  <defs>
    <style>
      .st0 {
        font-family: GodoB-KSCpc-EUC-H, 'Godo B';
        font-size: 29px;
      }

      .st0, .st1 {
        fill: #fff;
      }
    </style>
    <path id="path" d="M1261.28,438.73c0,55.23-44.77,100-100,100s-100-44.77-100-100,44.77-100,100-100,100,44.77,100,100Z"/>
  </defs>
  <g>
    <text>
      <textPath startOffset="71.28%" xlink:href="#path"><tspan class="st0"><tspan x="0" y="0" xml:space="preserve">동물보호센터       동물보호센터      동물보호센터</tspan></tspan>
      </textPath></text>
    <text/>
    <circle class="st1" cx="1213.3" cy="343.34" r="4.62"/>
    <circle class="st1" cx="1217.92" cy="533.64" r="4.62"/>
    <circle class="st1" cx="1052.55" cy="443.34" r="4.62"/>
  </g>
  <g>
    <g>
      <path class="st1" d="M1348.87,411.58l2.2.81c.41.15.71.01.85-.37l4.2-11.4c.23-.63.76-.55,1.77-.18,1.03.38,1.48.67,1.25,1.3l-2.08,5.63,2.18.8,3.35-9.09c.27-.73.77-.67,1.81-.29,1.06.39,1.43.65,1.16,1.38l-8.3,22.53-2.97-1.09,3.57-9.69-2.18-.8-1.05,2.86c-.26.71-1.31,1.46-2.13,1.84-.81.35-1.86.61-2.41.41l-5.6-2.07,5.68-15.43c.23-.63.76-.55,1.77-.18,1.03.38,1.48.67,1.25,1.3l-4.32,11.73ZM1373.15,415.45c-1.35,3.67-4.48,6.45-7.91,5.18-3.43-1.26-4-5.4-2.65-9.07s4.48-6.45,7.9-5.18c3.43,1.26,4,5.4,2.65,9.07ZM1365.63,412.65c-.75,2.04-.4,3.78.98,4.29,1.39.51,2.78-.58,3.53-2.62.73-1.99.38-3.72-1-4.23-1.39-.51-2.78.58-3.51,2.57Z"/>
      <path class="st1" d="M1357,385.34l10-14.27,5.48,3.85c1.09.77,1.32,1.6.49,2.79l-7.21,10.28c-.25.36-1.14.62-1.92.78-.9.18-1.65.23-2.05-.06l-4.8-3.36ZM1363.43,385.06c.26.18.54.2.73-.09l5.23-7.46-2.14-1.5-5.51,7.86,1.69,1.18ZM1377.27,374.51c.37-.52.77-.45,1.68.18.93.65,1.09.97.72,1.5l-5.61,8,1.64,1.15,3.23-4.61c.52-.74.96-.81,1.65-.33l4.89,3.43-7.91,11.28.74.52c.26.18.44.13.59-.08l7.64-10.9c.35-.5.78-.3,1.61.28s1.16.92.81,1.42l-8.37,11.94c-.37.52-1.19.83-1.93.98-.91.18-1.76.18-2.19-.12l-3.54-2.48,7.91-11.28-1.04-.73-7.91,11.28-2.42-1.7,3.95-5.63-1.64-1.15-5.93,8.45-2.4-1.68,13.83-19.73Z"/>
      <path class="st1" d="M1404.35,362.03c.6-.51,1.08-.12,1.79.72.73.86,1,1.36.4,1.86l-18.32,15.51-2.19-2.59,7.88-6.67-2.66-3.14-2.48,2.1c-.55.47-1.57.57-2.45.48-.86-.07-2.16-.3-2.49-.7l-6.39-7.54,3.05-2.59,2.19,2.59,7.41-6.28-2.19-2.59,3.05-2.59,7.14,8.43c.9,1.06.94,2.09-.12,2.99l-3.67,3.11,2.66,3.14,7.39-6.26ZM1386.47,366.53c.32.38.56.4.94.08l6.9-5.85-2.06-2.43-7.41,6.28,1.63,1.92Z"/>
      <path class="st1" d="M1403.29,347.03l-1.39-2.9,6.67-3.18-1.2-2.51,3.48-1.66,1.2,2.51,6.23-2.97c.71-.34,1.04.08,1.51,1.08.49,1.02.58,1.49-.12,1.83l-16.38,7.81ZM1418.5,352.46l1.02,2.15,8.74-4.17c.71-.34,1.07.16,1.55,1.16.49,1.02.62,1.57-.09,1.9l-21.67,10.33-1.46-3.06,9.32-4.44-1.01-2.12c-3.08.89-5.93.16-7.15-2.4-1.45-3.04.58-6.25,4.27-8.01,3.69-1.76,7.47-1.31,8.92,1.72,1.19,2.49.03,5.12-2.44,6.94ZM1413.38,346.65c-1.75.84-2.6,2.23-2.02,3.44s2.19,1.43,3.94.59c1.75-.84,2.6-2.23,2.02-3.44-.57-1.2-2.19-1.43-3.94-.59Z"/>
      <path class="st1" d="M1434.74,338.23c-.46,2.24-1.62,4.58-2.64,6.07-.46.68-.75.7-2.01-.03-.96-.56-1.54-.8-1.07-1.63,1.78-2.96,3.13-6.14,2.53-9.3l-.51-2.74,4.02-.75.5,2.68c.59,3.14,4.04,6.12,5.75,7.36.58.42.32.91-.35,1.78-.85,1.1-1.06,1.26-1.7.82-1.32-.87-3.29-2.6-4.52-4.26ZM1454.28,348.96c.63-.12.86.52,1.05,1.49.2,1.05.19,1.62-.44,1.74l-13.54,2.54c-.74.14-1.9-.35-2.61-.87-.74-.48-1.48-1.26-1.58-1.8l-1.14-6.07,3.88-.73,1.04,5.56c.08.43.35.58.77.5l12.57-2.36ZM1439.08,336.5l-.63-3.33,3.45-.65-.81-4.33,3.65-.69,3.13,16.67c.12.63-.48.89-1.68,1.11-1.17.22-1.85.2-1.97-.43l-1.69-9.01-3.45.65ZM1446.5,326.87l3.73-.7,3.24,17.24c.12.63-.51.89-1.74,1.12-1.17.22-1.88.21-2-.42l-3.24-17.24Z"/>
      <path class="st1" d="M1461.98,331.41l-.23,3.53,7.43.49c.67.04.74.66.67,1.73-.07,1.1-.23,1.7-.89,1.66l-7.44-.49-.19,2.84c-.03.43.19.68.59.71l8.88.59c.67.04.74.66.67,1.73-.07,1.1-.23,1.7-.89,1.66l-9.84-.65c-.75-.05-1.78-.84-2.37-1.52-.57-.68-1.12-1.58-1.08-2.16l.91-13.74,11.86.78c.67.04.74.66.67,1.73-.07,1.1-.23,1.7-.89,1.66l-7.87-.52ZM1478.43,351.23c-.04.67-.78.79-2.08.71-1.21-.08-1.96-.27-1.91-.94l.82-12.38-3.96-.26.22-3.38,3.96.26.54-8.16,3.99.26-1.58,23.9Z"/>
      <path class="st1" d="M1536.83,390.28c-2.39-3.1-3.07-7.23-.17-9.45,2.9-2.23,6.71-.51,9.09,2.6,2.39,3.1,3.07,7.23.17,9.45-2.9,2.23-6.71.51-9.09-2.6ZM1543.21,385.41c-1.33-1.72-2.98-2.35-4.15-1.45-1.17.9-.99,2.66.33,4.39,1.29,1.68,2.95,2.31,4.12,1.41,1.17-.9.99-2.66-.3-4.34ZM1553.06,371.81l-1.86,1.43c-.34.27-.39.59-.14.91l7.4,9.63c.41.53.06.94-.79,1.59-.87.67-1.36.9-1.76.37l-3.66-4.76-1.84,1.41,5.9,7.68c.48.62.16,1.01-.72,1.68-.9.69-1.31.86-1.79.24l-14.63-19.04,2.51-1.93,6.29,8.19,1.84-1.41-1.86-2.41c-.46-.6-.54-1.89-.42-2.79.13-.87.48-1.9.94-2.26l4.74-3.64,10.02,13.04c.41.53.06.94-.79,1.59-.87.67-1.36.9-1.76.37l-7.62-9.91Z"/>
      <path class="st1" d="M1569.29,415.6c.25.59-.03.89-1.05,1.32-1.04.44-1.41.4-1.65-.19l-3.78-9.01-1.84.77,2.17,5.19c.35.83.18,1.25-.6,1.57l-5.51,2.31-5.33-12.71-.83.35c-.29.12-.35.3-.25.54l5.15,12.28c.24.56-.16.82-1.09,1.21-.94.39-1.4.49-1.63-.07l-5.64-13.45c-.25-.59-.07-1.45.2-2.16.33-.86.78-1.59,1.26-1.79l3.99-1.67,5.33,12.71,1.18-.49-5.33-12.71,2.73-1.14,2.66,6.34,1.85-.77-3.99-9.52,2.7-1.13,9.32,22.23ZM1570.93,392.67l6.74,16.08-6.18,2.59c-1.23.52-2.06.27-2.62-1.07l-4.86-11.58c-.17-.4.09-1.29.37-2.04.33-.86.69-1.51,1.14-1.71l5.4-2.27ZM1567.74,398.26c-.29.12-.45.35-.32.67l3.52,8.4,2.41-1.01-3.71-8.85-1.9.8Z"/>
      <path class="st1" d="M1565.33,445.16c.11.78-.48.97-1.57,1.13-1.12.16-1.68.12-1.79-.66l-3.3-23.79,3.36-.47,1.42,10.23,4.08-.57-.45-3.22c-.1-.72.36-1.63.91-2.32.52-.69,1.41-1.66,1.93-1.73l9.8-1.36.55,3.97-3.36.47,1.33,9.63,3.36-.47.55,3.97-10.95,1.52c-1.38.19-2.27-.33-2.46-1.71l-.66-4.77-4.08.57,1.33,9.6ZM1571.1,427.64c-.49.07-.64.26-.57.75l1.24,8.96,3.16-.44-1.33-9.63-2.5.35Z"/>
      <path class="st1" d="M1565.86,462.24l-2.36-.28-1.14,9.62c-.09.78-.71.82-1.8.69-1.12-.13-1.66-.31-1.56-1.09l2.82-23.84,3.37.4-1.21,10.25,2.33.28c.89-3.08,3.03-5.1,5.85-4.77,3.34.39,4.98,3.83,4.5,7.89-.48,4.06-2.87,7.02-6.21,6.62-2.74-.32-4.35-2.7-4.57-5.77ZM1573.51,461.02c.23-1.93-.5-3.39-1.83-3.54-1.32-.16-2.38,1.09-2.61,3.02-.23,1.93.5,3.39,1.83,3.54,1.33.16,2.38-1.09,2.61-3.02ZM1578.57,452.27l3.2.38-.87,7.34,2.76.33-.45,3.83-2.76-.33-.81,6.85c-.09.78-.62.83-1.72.7-1.12-.13-1.57-.3-1.48-1.08l2.13-18.02Z"/>
      <path class="st1" d="M1549.73,494.38c-.24.59-.9.46-1.81.09-1-.4-1.47-.71-1.23-1.3l5.07-12.81c.28-.7,1.31-1.42,2.13-1.75.8-.37,1.85-.58,2.36-.37l5.74,2.28-1.45,3.67-5.26-2.08c-.4-.16-.68-.02-.84.38l-4.71,11.89ZM1572.56,499.59l-1.4,3.53-16.31-6.46c-.59-.24-.48-.91-.02-2.07.44-1.11.83-1.7,1.42-1.46l16.31,6.46ZM1568.38,488.17l3.15,1.25-1.29,3.26,4.1,1.62-1.37,3.45-15.77-6.25c-.59-.24-.49-.88-.04-2.01.44-1.11.82-1.67,1.41-1.44l8.52,3.38,1.29-3.26ZM1569.23,483.57c-1.65-1.59-3.01-3.81-3.73-5.47-.33-.75-.19-1.01,1.1-1.68.98-.52,1.5-.87,1.95-.04,1.56,3.08,3.52,5.92,6.51,7.1l2.59,1.03-1.51,3.8-2.53-1c-2.97-1.17-7.33.15-9.29.94-.67.27-.94-.22-1.32-1.24-.48-1.31-.5-1.57.21-1.88,1.44-.65,3.95-1.4,6.01-1.55Z"/>
      <path class="st1" d="M1534.88,513.54c-.54-.39-.25-1.08.52-2.13.72-.98,1.28-1.51,1.82-1.11l10.02,7.33,2.35-3.21,2.74,2-2.35,3.21,6.6,4.83-2.36,3.23-19.33-14.14ZM1560.44,510.28l-2.86-2.09-4.4,6.02c-.39.54-.95.27-1.82-.36-.89-.65-1.31-1.1-.92-1.64l4.4-6.02-2.29-1.68c-.35-.26-.68-.21-.92.12l-5.26,7.19c-.39.54-.95.27-1.82-.36-.89-.65-1.31-1.1-.92-1.64l5.82-7.96c.45-.61,1.66-1.05,2.56-1.19.87-.11,1.94-.09,2.4.25l11.12,8.13-7.02,9.6c-.39.54-.95.27-1.82-.36-.89-.65-1.31-1.1-.92-1.64l4.66-6.37Z"/>
      <path class="st1" d="M1487.59,563.92l-.41-2.31c-.08-.43-.34-.62-.74-.54l-11.96,2.12c-.66.12-.86-.38-1.05-1.43-.19-1.08-.17-1.62.49-1.74l5.91-1.05-.4-2.28-9.54,1.69c-.77.14-.97-.33-1.16-1.41-.2-1.11-.16-1.56.61-1.7l23.64-4.18.55,3.11-10.16,1.8.4,2.28,3-.53c.74-.13,1.92.4,2.66.91.71.52,1.47,1.3,1.57,1.87l1.04,5.88-16.19,2.86c-.66.12-.86-.38-1.05-1.43-.19-1.08-.17-1.62.49-1.74l12.3-2.18ZM1478.71,540.99c3.85-.68,7.82.62,8.46,4.21.64,3.6-2.65,6.18-6.5,6.86-3.85.68-7.82-.62-8.46-4.22-.64-3.6,2.65-6.18,6.5-6.86ZM1480.08,548.91c2.14-.38,3.46-1.56,3.21-3.01s-1.9-2.11-4.04-1.73c-2.08.37-3.41,1.54-3.15,3s1.9,2.11,3.99,1.74Z"/>
      <path class="st1" d="M1441.26,558.14c-.64-.05-.78-.44-.69-1.54.09-1.13.29-1.43.93-1.38l9.74.79.16-1.99-5.61-.45c-.9-.07-1.19-.42-1.12-1.25l.48-5.95,13.73,1.11.07-.9c.03-.32-.11-.44-.37-.47l-13.27-1.07c-.61-.05-.66-.52-.57-1.53.08-1.01.21-1.47.81-1.42l14.54,1.17c.64.05,1.32.6,1.83,1.17.61.69,1.05,1.42,1.01,1.94l-.35,4.31-13.73-1.11-.1,1.27,13.73,1.11-.24,2.95-6.85-.55-.16,1.99,10.29.83-.24,2.92-24.02-1.94ZM1460.85,570.13l-17.37-1.4.54-6.68c.11-1.33.71-1.95,2.16-1.83l12.51,1.01c.43.04,1.11.67,1.64,1.27.61.69,1.03,1.31.99,1.8l-.47,5.84ZM1457.36,564.73c.03-.32-.1-.56-.45-.59l-9.07-.73-.21,2.6,9.57.77.17-2.05Z"/>
      <path class="st1" d="M1416.82,541.06c-.74-.26-.64-.87-.28-1.91.38-1.07.67-1.55,1.41-1.29l22.64,8-1.13,3.2-9.73-3.44-1.37,3.88,3.06,1.08c.68.24,1.28,1.07,1.64,1.87.37.78.83,2.01.65,2.51l-3.29,9.32-3.77-1.33,1.13-3.2-9.16-3.24-1.13,3.2-3.77-1.33,3.68-10.42c.46-1.31,1.34-1.87,2.65-1.4l4.54,1.6,1.37-3.88-9.13-3.23ZM1429.73,554.23c.16-.46.06-.69-.41-.85l-8.53-3.01-1.06,3.01,9.16,3.24.84-2.38Z"/>
      <path class="st1" d="M1404.39,549.52l-1.81,2.66-6.11-4.16-1.57,2.3-3.19-2.17,1.57-2.3-5.71-3.89c-.65-.44-.45-.94.17-1.85.64-.93.99-1.25,1.64-.81l15.01,10.22ZM1401.42,533.64l1.34-1.97-8.01-5.45c-.65-.44-.4-1.01.22-1.92.64-.93,1.04-1.33,1.69-.88l19.85,13.52-1.91,2.8-8.53-5.81-1.32,1.94c2.32,2.21,3.13,5.04,1.53,7.39-1.89,2.78-5.7,2.65-9.08.34-3.38-2.3-4.9-5.79-3-8.57,1.55-2.28,4.41-2.61,7.23-1.39ZM1398.97,540.99c1.61,1.09,3.24,1.12,3.99.02.75-1.1.13-2.61-1.48-3.71-1.61-1.09-3.24-1.12-3.99-.01-.75,1.1-.13,2.61,1.48,3.71Z"/>
      <path class="st1" d="M1365.19,522.39l-2.5-2.87,13.24-11.52c.48-.42,1.03-.01,1.85.93.78.9,1.13,1.52.65,1.94l-13.24,11.52ZM1377.26,523.93l-2.56,2.23-2.3-2.65-3.33,2.89-2.44-2.8,12.8-11.14c.48-.42,1.01-.03,1.81.89.78.9,1.11,1.5.63,1.92l-6.92,6.02,2.3,2.65ZM1380.94,526.79c2.17-.73,4.77-.92,6.57-.8.82.06.99.29.99,1.75,0,1.11.09,1.73-.86,1.75-3.45-.03-6.88.41-9.3,2.52l-2.1,1.83-2.68-3.08,2.06-1.79c2.41-2.09,3.23-6.58,3.44-8.69.07-.71.63-.74,1.71-.6,1.39.18,1.63.28,1.57,1.05-.09,1.58-.58,4.15-1.39,6.05ZM1380.31,504.5c-.42-.48,0-1.01.75-1.65.81-.7,1.3-.98,1.72-.5l9.05,10.39c.5.57.66,1.81.57,2.69-.04.88-.34,1.91-.75,2.27l-4.66,4.06-2.59-2.98,4.27-3.71c.33-.29.33-.59.04-.92l-8.4-9.65Z"/>
      <path class="st1" d="M1370.1,482.53c.6-.3,1.08.27,1.66,1.44.54,1.09.75,1.83.15,2.13l-11.11,5.54,1.77,3.56-3.04,1.51-1.77-3.56-7.32,3.65-1.79-3.58,21.44-10.69ZM1361.27,506.74l3.17-1.58-3.33-6.67c-.3-.6.2-.97,1.16-1.45.99-.49,1.58-.66,1.88-.06l3.33,6.67,2.54-1.27c.39-.19.49-.5.31-.87l-3.97-7.97c-.3-.6.2-.97,1.16-1.45.99-.49,1.58-.66,1.88-.06l4.4,8.83c.34.67.17,1.96-.12,2.81-.3.83-.81,1.76-1.33,2.02l-12.33,6.15-5.31-10.64c-.3-.6.2-.97,1.16-1.45.99-.49,1.58-.66,1.88-.06l3.52,7.06Z"/>
    </g>
    <circle class="st1" cx="1513.96" cy="352.57" r="4.62"/>
    <circle class="st1" cx="1518.58" cy="542.87" r="4.62"/>
    <circle class="st1" cx="1353.21" cy="452.57" r="4.62"/>
  </g>
</svg>