<?xml version="1.0" encoding="UTF-8"?>
<svg id="Layer_1" xmlns="http://www.w3.org/2000/svg" version="1.1" viewBox="0 0 423.1 113.8">
  <!-- Generator: Adobe Illustrator 29.3.0, SVG Export Plug-In . SVG Version: 2.1.0 Build 146)  -->
  <defs>
    <style>
      .st0 {
        fill: #004097;
      }
    </style>
  </defs>
  <path class="st0" d="M209.7,60.2v11.2h-15c8.8,7,14.6,16.2,7.1,26.8-13.6,19.2-70,19-80.1-2.9-4.8-10.4,1.3-17.3,8.6-23.9h-16.5v-11.2h95.8,0ZM157.8,74.6c-22.8,2-28.9,19.6-4.5,24.2,8.8,1.7,33.5.9,33.9-11.4.4-12-21-13.6-29.4-12.9Z"/>
  <path class="st0" d="M388.6,30.3h15V10.9h17.2v50.8h-17.2v-20.2h-13.8c-6.2,14.6-20.4,21.3-35.9,20.1-16.8-1.3-34.1-15.5-27-33.6,9.6-24.2,54.5-23.6,61.8,2.2h0ZM354,22.3c-2.6.5-6.2,2.7-8,4.7-10.8,12.1,4.4,28.5,18.6,21.6,15.2-7.5,7.4-29.4-10.6-26.3h0Z"/>
  <path class="st0" d="M171.5,12.4h37.4v11.2h-12c.3,2.2,2.2,3.5,3,5.6,4,9.7-3.2,18-11.5,22.2-14.7,7.4-40.7,7.1-54.7-1.8-10.1-6.4-13-16.3-5-26h-12v-11.2h36.3c2.4-1.3.4-9.8,1.1-10.5l16.5.3.7,10.1h0ZM143.3,29.1c-5.3,5.9-.9,11.5,5.2,14.1,8.2,3.4,25.2,3.3,32.3-2.4,4.6-3.6,4.6-9,0-12.7-7.5-6.1-31-6.3-37.6,1h0Z"/>
  <path class="st0" d="M355.7,66.9c.6.6-1.2,7.8,1.1,9h46.8v-9h17.2v38.8h-78.2c-.4,0-3.4-2.3-3.4-2.6v-36.2h16.5ZM403.6,87.1h-46.8c-1.7,1.5-1.7,5.2,0,6.7h46.8v-6.7Z"/>
  <path class="st0" d="M69.6,12.4v11.2h-24c-.3,16.5,8.5,29.4,23.2,36.2l-7.5,8.2c-4.9,2-24.8-15.7-25.1-22-6.3,10.5-16.9,18.1-28.3,22.3L0,59.8c15.3-7.1,26.3-18.5,26.9-36.2H2.2v-11.2h67.4Z"/>
  <path class="st0" d="M225.4,23.6v-11.2h49c8.4,0,3.8,18.1,2.6,22.7-5.9,23.2-20.6,47.4-40.8,60.7-1.7-1.6-12.8-6.7-12.4-8.3,16.2-12.1,30-30.8,35.6-50.4.7-2.5,2.7-9.6,2.6-11.6,0-.7-.6-1.8-1.1-1.8h-35.6Z"/>
  <rect class="st0" x="292.8" y="10.2" width="16.5" height="95.6"/>
  <path class="st0" d="M29.9,74.4v20.9h65.2v11.2H15.3c-.2,0-2.6-2.4-2.6-2.6v-29.5h17.2Z"/>
  <rect class="st0" x="77.9" y="10.2" width="17.2" height="67.2"/>
</svg>