<svg width="26" height="26" viewBox="0 0 26 26" fill="none" xmlns="http://www.w3.org/2000/svg">
<path d="M25 12.7223C25 12.9644 24.8175 12.9644 24.1719 13.1638C23.9053 13.2493 23.7649 13.6766 23.5544 14.3602C23.0912 15.7988 21.6175 18.1205 18.5579 18.1205C15.4982 18.1205 13.8842 15.4712 13.7719 15.3288C13.6175 15.1151 13.3649 14.9157 13.1544 14.9157C13.014 14.9157 12.9158 14.9727 12.8316 15.0297C11.7228 15.7988 10.5158 16.6677 10.5158 18.6617C10.5158 19.9721 11.5965 21.4677 13.4211 21.4677C14.9789 21.4677 16.0035 19.9721 16.3263 18.9323C16.4386 18.5763 16.4105 18.4338 16.593 18.4338C16.8316 18.4338 16.9158 18.9751 17.2386 18.9751C17.5053 18.9751 17.4211 18.8326 17.7719 18.8326C18.0947 18.8326 18.1789 19.2742 18.4456 19.2742C18.8246 19.2742 19.3298 18.9466 19.5825 18.9466C19.6667 18.9466 19.793 18.9466 19.793 19.032C19.793 19.1745 19.5544 19.3027 19.3298 19.5021C18.8667 19.9151 18.5298 20.1573 18.1789 20.7555C16.9439 22.8777 15.5123 23.2623 14.7825 23.4902C14.5158 23.5757 14.2491 23.7039 14.1368 23.9602C13.7298 24.8861 13.4912 25 13.3789 25C13.2386 25 13.1965 24.8433 13.1684 24.4872C13.1404 24.1027 12.9298 23.6611 12.2 23.5329C10.3474 23.1769 8.05965 21.2682 8.05965 18.2629C8.05965 15.5567 10.0807 14.5027 11.1053 13.4629C11.2456 13.3205 11.3439 13.1638 11.3439 12.9217V12.8362C11.3439 12.708 11.3158 12.5371 11.1474 12.3234C10.1228 11.0131 9.35088 10.1442 7.94737 10.1442C6.41754 10.1442 5.07018 11.4261 5.07018 13.2777C5.07018 15.2718 6.0386 15.9555 7.00702 16.1976C7.32982 16.2831 7.4421 16.3116 7.4421 16.4113C7.4421 16.6249 7.23158 16.5822 7.23158 16.9098C7.23158 17.1519 7.41403 17.1234 7.41403 17.508C7.41403 17.7786 7.17544 17.8641 7.17544 18.2771C7.17544 18.6047 7.32982 18.7187 7.32982 18.9039C7.32982 19.146 7.47018 19.1175 7.47018 19.6445C7.47018 19.7869 7.52632 19.8866 7.41403 19.8866C7.30175 19.8866 7.17544 19.7015 7.00702 19.4451C6.62807 18.8754 6.22105 18.5193 5.92632 18.2914C3.58246 16.568 3.49825 15.8131 2.90877 14.6309C2.76842 14.3602 2.72632 13.8902 2.44561 13.762C1.58947 13.3205 1 13.1923 1 12.4801C1 12.1525 1.37895 12.4801 1.96842 12.4801C2.29123 12.4801 2.67018 12.5371 2.85263 11.8534C3.25965 10.4006 4.94386 8.07893 7.90526 8.07893C11.0491 8.07893 12.607 10.7282 12.7193 10.8706C12.9298 11.1697 13.1263 11.2837 13.3368 11.2837C13.4772 11.2837 13.5754 11.2837 13.814 11.07C15.807 9.27537 15.9614 8.47774 15.9614 7.43798C15.9614 6.1276 14.9368 4.60356 13.1123 4.60356C11.2877 4.60356 10.4175 6.07062 10.1789 7.16736C10.0947 7.52344 10.0386 7.70861 9.88421 7.70861C9.64561 7.70861 9.64561 7.38101 9.37895 7.38101C8.94386 7.38101 8.90175 7.56617 8.67719 7.56617C8.38246 7.56617 8.38246 7.02493 7.94737 7.02493C7.83509 7.02493 7.59649 7.16736 7.4421 7.16736C7.03509 7.16736 7.00702 7.25282 6.82456 7.25282C6.61403 7.25282 6.38947 7.13887 6.38947 6.9822C6.38947 6.82552 6.52982 6.71157 6.95088 6.49792C7.51228 6.19881 8.03158 5.98516 8.29825 5.3727C9.12632 3.49258 10.9649 2.89436 11.6667 2.62374C11.9333 2.50979 12.0737 2.41009 12.2 2.15371C12.7614 1.11395 13.014 1 13.1684 1C13.3228 1 13.3088 1.27062 13.3789 1.59822C13.4632 1.98279 13.4632 2.2819 14.0807 2.43858C15.8351 2.90861 18.4035 4.54659 18.4035 7.53768C18.4035 10.5288 15.4982 12.4231 15.3579 12.5371C15.0351 12.7792 14.9228 12.9786 14.9228 13.1638C14.9228 13.3062 15.007 13.4629 15.0912 13.6338C15.793 15.0582 17 15.984 18.4035 15.984C20.0737 15.984 21.3649 14.403 21.3649 12.765C21.3649 11.127 20.2842 10.1442 19.3439 9.8451C18.993 9.73116 18.8386 9.73116 18.8386 9.54599C18.8386 9.33234 19.0772 9.40356 19.0772 9.07596C19.0772 8.83383 18.9649 8.8908 18.9649 8.50623C18.9649 8.23561 19.2877 8.15015 19.2877 7.73709C19.2877 7.4095 19.1333 7.29555 19.1333 7.11039C19.1333 6.86825 19.0491 6.89674 19.0491 6.36973C19.0491 6.2273 18.993 6.1276 19.1053 6.1276C19.2456 6.1276 19.3719 6.31276 19.5404 6.56914C19.9193 7.13887 20.214 7.58042 20.5088 7.76558C22.6281 9.13294 23.0912 10.0018 23.5825 11.2267C23.6947 11.4973 23.793 11.9674 24.1158 12.1525C24.3825 12.3234 24.9719 12.5086 24.9719 12.7223" fill="black"/>
</svg>
