<svg id="logo" xmlns="http://www.w3.org/2000/svg" xmlns:xlink="http://www.w3.org/1999/xlink" width="193.003" height="49.933" viewBox="0 0 193.003 49.933">
  <defs>
    <clipPath id="clip-path">
      <rect id="사각형_13" data-name="사각형 13" width="193.003" height="49.933" fill="none"/>
    </clipPath>
  </defs>
  <g id="그룹_1" data-name="그룹 1" clip-path="url(#clip-path)">
    <path id="패스_1" data-name="패스 1" d="M0,45.078S3.568,49.718,8.922,49s13.562.357,6.781-12.491S9.279,17.241,13.2,11.173,26.766,1.18,34.975.11s13.2,6.068,13.2,6.068C46.4,7.6,44.254,2.252,37.83,3.679s-7.851,2.854-5.353,8.564S38.9,25.382,38.9,25.382A19.06,19.06,0,0,1,28.551,46.148s5.711-6.424,2.5-11.777-5-8.989-5-8.989,1.428,7.562,2.855,9.7-1.428,7.138-1.428,7.138a16.743,16.743,0,0,1-16.417,7.54C-.089,48.246,0,45.078,0,45.078" transform="translate(0 0)" fill="#6aae27"/>
    <path id="패스_2" data-name="패스 2" d="M36.036,10.649c0-2.279,1.965-3.3,3.976-3.3,1.965,0,3.8,1.072,3.8,3.3V37.757c0,2.323-1.7,3.44-3.8,3.44-2.011,0-3.976-1.028-3.976-3.44Z" transform="translate(12.728 2.594)" fill="#362f2d"/>
    <path id="패스_3" data-name="패스 3" d="M72.385,19.447c-1.027,1.474-2.054,3.037-3.081,4.778-1.072,1.742-2.1,3.306-3.037,4.734a3.32,3.32,0,0,1-2.9,1.43,3.219,3.219,0,0,1-2.813-1.475l-6.03-9.69V37.757c0,2.457-1.876,3.44-3.84,3.44-2.01,0-3.886-1.028-3.886-3.44V10.692c0-2.188,1.877-3.348,3.886-3.348,2.456,0,3.84.447,5.448,2.946l7.236,11.345,7.5-11.345C72.34,8.1,73.59,7.344,76.225,7.344c2.145,0,3.842,1.16,3.842,3.348V37.757c0,2.411-1.965,3.44-3.842,3.44s-3.84-1.028-3.84-3.44Z" transform="translate(16.527 2.594)" fill="#362f2d"/>
    <path id="패스_4" data-name="패스 4" d="M84.033,37.757c0,2.411-1.876,3.44-3.8,3.44-2.1,0-3.974-1.073-3.974-3.44V9.711c0-1.564,1.3-2.367,3.215-2.367h10.54c7.593,0,13.935,2.9,13.935,10.494v.269c0,7.591-6.03,10.54-13.578,10.54H84.033Zm6.342-14.2c3.617,0,5.851-1.608,5.851-5.137v-.625c0-3.438-2.77-4.957-6.521-4.957H84.033V23.555Z" transform="translate(26.936 2.594)" fill="#362f2d"/>
    <path id="패스_5" data-name="패스 5" d="M100.113,30.837c-.046-2.145-.091-4.288-.091-6.432,0-2.1.045-4.288.091-6.521.134-7.725,5.939-10.54,13.621-10.54,7.458,0,13.219,3.126,13.577,10.54.18,4.287.134,8.888,0,12.953-.133,7.458-6.03,10.585-13.577,10.585-7.862,0-13.487-2.858-13.621-10.585m13.621-18c-3.885,0-6.03,1.652-6.162,5.091-.091,4.333-.091,8.62,0,12.908.133,3.528,2.277,5.046,6.162,5.046,3.617,0,5.941-1.7,6.162-5.091a124.059,124.059,0,0,0,0-12.908c-.134-3.44-2.455-5.046-6.162-5.046" transform="translate(35.328 2.594)" fill="#362f2d"/>
    <path id="패스_6" data-name="패스 6" d="M124.937,10.649c0-2.279,1.92-3.3,3.93-3.3,2.1,0,3.8,1.072,3.8,3.3V35.614h12.862c2.5,0,3.349,1.3,3.349,2.859,0,1.249-.713,2.724-3.349,2.724H128.6c-2.279,0-3.663-1.116-3.663-3.081Z" transform="translate(44.128 2.594)" fill="#362f2d"/>
  </g>
</svg>
