<svg width="113" height="111" viewBox="0 0 113 111" fill="none" xmlns="http://www.w3.org/2000/svg">
<path d="M74.275 2.08996L73.8739 3.12322C73.8002 3.3132 73.8601 3.45684 74.0399 3.52634L79.3501 5.60214C79.6405 5.71798 79.6037 5.96356 79.4193 6.43617C79.2303 6.92269 79.092 7.1312 78.8016 7.01536L76.1787 5.99136L75.7823 7.01073L80.0139 8.66488C80.355 8.79926 80.3228 9.03556 80.1338 9.51745C79.9402 10.0132 79.8157 10.1847 79.4746 10.0503L68.9785 5.94966L69.5178 4.55961L74.0307 6.32497L74.4225 5.3056L73.0903 4.78665C72.7584 4.65691 72.4127 4.15649 72.2421 3.76728C72.0854 3.3827 71.9702 2.88228 72.0716 2.62744L73.0857 0.00488281L80.2721 2.81278C80.5625 2.92862 80.5256 3.17419 80.3412 3.64681C80.1522 4.12869 80.0139 4.34183 79.7235 4.226L74.2611 2.08996H74.275ZM72.2513 13.5023C70.5412 12.835 69.2643 11.3384 69.8866 9.73522C70.5089 8.13203 72.4542 7.89109 74.1643 8.56295C75.8745 9.23017 77.1514 10.7268 76.5291 12.33C75.9068 13.9332 73.9661 14.1741 72.2513 13.5023ZM73.6296 9.97616C72.68 9.60548 71.8641 9.75376 71.6106 10.4024C71.3571 11.0511 71.8595 11.7184 72.8137 12.089C73.7402 12.4504 74.5561 12.3022 74.8051 11.6489C75.0586 11.0002 74.5561 10.3329 73.6296 9.97153V9.97616Z" fill="white"/>
<path d="M91.3858 15.8232C91.6255 15.9992 91.5886 16.1939 91.2798 16.6109C90.9663 17.0418 90.8096 17.1113 90.5699 16.9352L86.8776 14.2061L86.3198 14.966L88.4449 16.5367C88.786 16.7869 88.8182 17.0001 88.5832 17.3198L86.9237 19.5902L81.7194 15.7444L81.4705 16.0873C81.3829 16.2078 81.406 16.2912 81.5028 16.3653L86.5319 20.0814C86.7624 20.2528 86.6656 20.452 86.3844 20.8366C86.1032 21.2212 85.9418 21.3741 85.7114 21.2027L80.1983 17.1298C79.9586 16.9537 79.8203 16.5599 79.7557 16.2078C79.682 15.7815 79.6866 15.3784 79.8341 15.1791L81.0326 13.5389L86.2369 17.3847L86.5918 16.8981L81.3875 13.0523L82.2081 11.931L84.8033 13.8493L85.3564 13.0894L81.4567 10.2074L82.268 9.09534L91.3766 15.8232H91.3858ZM86.5227 6.15307L93.1098 11.0182L91.2475 13.562C90.8787 14.0671 90.4823 14.169 89.9338 13.7613L85.1905 10.2537C85.0245 10.1332 84.9139 9.71159 84.8448 9.33628C84.771 8.91 84.7572 8.55785 84.8909 8.37251L86.518 6.14844L86.5227 6.15307ZM86.5872 9.18801C86.4996 9.30848 86.4904 9.43822 86.6195 9.53552L90.0628 12.0793L90.7865 11.0877L87.1588 8.40958L86.5872 9.19264V9.18801Z" fill="white"/>
<path d="M96.8892 28.7461C97.1197 29.0334 96.9307 29.2558 96.5251 29.5801C96.1102 29.9137 95.8751 30.0342 95.6446 29.7469L88.6104 20.9108L89.8503 19.91L92.8742 23.7095L94.3816 22.4955L93.432 21.3001C93.22 21.0313 93.1831 20.5541 93.2384 20.1417C93.2845 19.7386 93.409 19.1316 93.598 18.974L97.2165 16.0596L98.3873 17.533L97.1474 18.5339L99.9961 22.1109L101.236 21.1101L102.407 22.5835L98.3643 25.8362C97.8526 26.2486 97.3686 26.2486 96.963 25.7389L95.5524 23.9689L94.0451 25.1829L96.8846 28.7461H96.8892ZM95.0085 20.2575C94.8287 20.4012 94.8149 20.517 94.9578 20.6977L97.6083 24.0292L98.7745 23.0886L95.9258 19.5162L95.0039 20.2575H95.0085Z" fill="white"/>
<path d="M101.163 35.5388L100.144 35.9882L101.974 40.1676C102.122 40.5059 101.882 40.6727 101.412 40.8812C100.928 41.0943 100.67 41.1499 100.522 40.8117L95.9863 30.4512L97.443 29.8071L99.3928 34.2599L100.402 33.8151C100.029 32.3509 100.412 31.0165 101.633 30.479C103.076 29.8396 104.556 30.845 105.33 32.6058C106.104 34.3711 105.842 36.1457 104.394 36.7805C103.214 37.3041 101.993 36.7249 101.172 35.5341L101.163 35.5388ZM103.961 33.2127C103.592 32.3741 102.951 31.9571 102.38 32.2119C101.808 32.4667 101.679 33.222 102.048 34.0607C102.417 34.8993 103.057 35.3163 103.629 35.0615C104.201 34.8067 104.33 34.0514 103.961 33.2127ZM103.929 28.4495L105.312 27.8379L106.708 31.0304L107.902 30.5022L108.63 32.1656L107.437 32.6938L108.741 35.6731C108.889 36.0114 108.686 36.1596 108.216 36.3682C107.732 36.5813 107.51 36.623 107.363 36.2847L103.933 28.4541L103.929 28.4495Z" fill="white"/>
<path d="M102.255 52.4417C102.301 52.7382 102.001 52.8402 101.54 52.9097C101.043 52.9884 100.78 52.9699 100.734 52.6734L99.7519 46.256C99.6966 45.9038 99.9455 45.371 100.199 45.0374C100.434 44.6945 100.812 44.3609 101.066 44.3238L103.928 43.8836L104.209 45.7231L101.587 46.1262C101.384 46.1587 101.305 46.2791 101.338 46.483L102.246 52.4417H102.255ZM107.593 43.4017C106.551 43.1469 105.472 42.5677 104.79 42.0626C104.481 41.8356 104.472 41.6966 104.836 41.1128C105.113 40.668 105.237 40.3992 105.615 40.6309C106.975 41.5159 108.441 42.2017 109.935 41.97L111.225 41.7707L111.516 43.6751L110.253 43.8697C108.773 44.0968 107.321 45.6768 106.712 46.4645C106.505 46.7332 106.279 46.5988 105.887 46.2745C105.385 45.8528 105.311 45.7555 105.528 45.459C105.956 44.852 106.795 43.9485 107.593 43.3971V43.4017ZM108.335 45.4729L109.907 45.232L110.156 46.8676L112.198 46.5525L112.461 48.2808L104.597 49.4948C104.302 49.5411 104.186 49.2538 104.103 48.6839C104.02 48.1279 104.039 47.8082 104.334 47.7618L108.579 47.1085L108.33 45.4729H108.335ZM112.728 49.1241L113 50.8941L104.869 52.1498C104.574 52.1961 104.458 51.8949 104.371 51.3157C104.288 50.7597 104.302 50.4261 104.601 50.3798L112.733 49.1241H112.728Z" fill="white"/>
<path d="M100.739 63.7244C100.43 63.692 100.384 63.3445 100.448 62.7329C100.508 62.1629 100.614 61.8154 100.923 61.8479L106.708 62.4734L106.906 60.6107L108.487 60.7822L108.289 62.6448L112.101 63.0572L111.903 64.9338L100.734 63.7337L100.739 63.7244ZM110.345 56.3572L108.695 56.1811L108.321 59.6748C108.289 59.9852 107.999 60.013 107.496 59.9574C106.985 59.9018 106.703 59.8184 106.736 59.5033L107.109 56.0097L105.786 55.866C105.583 55.8429 105.463 55.9402 105.445 56.1301L104.998 60.3003C104.966 60.6154 104.675 60.6385 104.173 60.5829C103.661 60.5273 103.38 60.4439 103.412 60.1288L103.905 55.5092C103.942 55.1571 104.334 54.6891 104.666 54.4204C104.993 54.1655 105.431 53.9246 105.698 53.9524L112.12 54.6428L111.525 60.2169C111.493 60.5273 111.202 60.5551 110.7 60.4995C110.188 60.4439 109.907 60.3605 109.939 60.0454L110.331 56.3479L110.345 56.3572Z" fill="white"/>
<path d="M100.056 78.3338C100.757 78.7323 100.964 79.6127 100.563 80.2984C100.167 80.9842 99.3003 81.2205 98.6227 80.8174C97.9312 80.4096 97.71 79.5478 98.1156 78.8528C98.512 78.167 99.3648 77.9261 100.056 78.3338Z" fill="white"/>
<path d="M84.2962 87.9766C85.7114 86.8043 87.6336 86.4151 88.726 87.7449C89.8185 89.0747 89.0718 90.8957 87.6566 92.0679C86.2415 93.2402 84.3193 93.6294 83.2268 92.2996C82.1389 90.9698 82.8811 89.1488 84.2962 87.9766ZM86.684 90.9049C87.4722 90.2516 87.7396 89.4639 87.2971 88.9264C86.8545 88.3889 86.034 88.5048 85.2458 89.1535C84.4806 89.7883 84.2086 90.5759 84.6511 91.1181C85.0937 91.6555 85.9142 91.5397 86.6794 90.9049H86.684ZM93.2158 95.3253L92.5151 94.4727C92.3861 94.3152 92.234 94.3013 92.0864 94.4217L87.6889 98.0637C87.4492 98.2629 87.251 98.11 86.9283 97.7208C86.601 97.3177 86.4858 97.0953 86.7255 96.896L88.8966 95.0982L88.2052 94.2549L84.7019 97.1601C84.4207 97.3965 84.2317 97.2528 83.8998 96.8497C83.5633 96.4373 83.4757 96.2427 83.7569 96.011L92.446 88.8106L93.391 89.9597L89.6526 93.0549L90.344 93.8982L91.4457 92.9854C91.7177 92.7583 92.3215 92.7027 92.7456 92.7398C93.1559 92.7908 93.6445 92.9344 93.8197 93.1429L95.6036 95.316L89.6526 100.246C89.4129 100.445 89.2147 100.292 88.892 99.8985C88.5647 99.5001 88.4495 99.273 88.6892 99.0738L93.2112 95.3253H93.2158Z" fill="white"/>
<path d="M72.9429 103.647C72.6709 103.772 72.5234 103.647 72.3068 103.174C72.0855 102.687 72.0993 102.516 72.3713 102.396L76.5384 100.477L76.1466 99.6201L73.7449 100.723C73.3624 100.899 73.1641 100.825 72.9982 100.463L71.832 97.901L77.7046 95.1997L77.5294 94.8151C77.4649 94.6761 77.3819 94.6576 77.2713 94.7086L71.5969 97.3172C71.3387 97.4377 71.2097 97.257 71.0115 96.8214C70.8132 96.3859 70.7579 96.1728 71.0207 96.0523L77.239 93.1934C77.511 93.0683 77.9166 93.1378 78.2531 93.2536C78.6634 93.3973 79.0091 93.5965 79.1105 93.8236L79.9541 95.677L74.0815 98.3783L74.3304 98.925L80.203 96.2237L80.7792 97.4933L77.8475 98.8416L78.2393 99.6988L82.6415 97.674L83.2131 98.9297L72.9337 103.656L72.9429 103.647ZM83.7109 104.077L76.2802 107.497L74.9757 104.624C74.7176 104.054 74.819 103.66 75.4367 103.373L80.793 100.913C80.9774 100.829 81.4015 100.936 81.7565 101.056C82.1667 101.2 82.4756 101.358 82.5724 101.566L83.7155 104.077H83.7109ZM81.0466 102.655C80.9867 102.521 80.876 102.447 80.7285 102.516L76.8472 104.3L77.3543 105.417L81.4476 103.535L81.0466 102.65V102.655Z" fill="white"/>
<path d="M59.0446 102.201C58.6805 102.262 58.5791 101.988 58.4961 101.479C58.4085 100.955 58.4177 100.686 58.7819 100.626L69.8864 98.7402L70.1492 100.316L65.3736 101.126L65.6963 103.04L67.199 102.785C67.5355 102.73 67.9688 102.934 68.3007 103.179C68.628 103.415 69.0982 103.819 69.1397 104.064L69.9141 108.661L68.061 108.976L67.7983 107.4L63.3039 108.165L63.5667 109.74L61.7136 110.055L60.8516 104.921C60.741 104.273 60.9761 103.846 61.6168 103.735L63.8432 103.355L63.5206 101.442L59.04 102.201H59.0446ZM67.3373 104.676C67.3004 104.444 67.2036 104.379 66.9778 104.416L62.7922 105.125L63.0412 106.608L67.5309 105.843L67.3327 104.671L67.3373 104.676Z" fill="white"/>
<path d="M51.0558 102.627L51.1618 101.511L46.6398 101.07C46.2757 101.033 46.248 100.741 46.2987 100.227C46.3494 99.6942 46.4278 99.444 46.7965 99.4764L58.0025 100.565L57.8504 102.159L53.0334 101.691L52.9273 102.794C54.3794 103.183 55.3474 104.17 55.2229 105.5C55.0708 107.08 53.4759 107.886 51.5675 107.701C49.6591 107.516 48.2486 106.417 48.4007 104.837C48.5252 103.545 49.6268 102.757 51.0604 102.623L51.0558 102.627ZM55.859 108.516L55.7161 110.027L52.2635 109.693L52.1391 111L50.3413 110.824L50.4658 109.517L47.2437 109.202C46.8795 109.165 46.8473 108.915 46.898 108.401C46.9487 107.872 47.0224 107.659 47.3912 107.692L55.8637 108.512L55.859 108.516ZM51.7058 106.218C52.6139 106.306 53.2869 105.945 53.3468 105.319C53.4067 104.694 52.8121 104.212 51.904 104.124C50.9959 104.036 50.3229 104.397 50.263 105.023C50.2031 105.648 50.7977 106.13 51.7058 106.218Z" fill="white"/>
<path d="M33.6267 106.167L31.958 105.541L34.8252 97.785C34.9312 97.5024 35.2447 97.5487 35.7932 97.7526C36.3141 97.9472 36.5999 98.1279 36.4939 98.4059L33.6267 106.162V106.167ZM35.8393 95.3524C35.5581 95.2458 35.618 94.9354 35.7794 94.4998C35.9545 94.0272 36.0974 93.8002 36.374 93.9068L42.431 96.1679C42.7629 96.293 43.1087 96.7703 43.27 97.1502C43.4498 97.5255 43.5604 98.0167 43.4682 98.2623L42.4587 100.991L40.7255 100.343L41.6474 97.8452C41.7166 97.6506 41.6474 97.5255 41.4584 97.456L35.8347 95.357L35.8393 95.3524ZM38.9416 104.077L38.3884 105.579L36.8442 105.004L36.1251 106.95L34.4933 106.343L37.2637 98.8461C37.3697 98.5634 37.6739 98.6051 38.2086 98.8044C38.7295 98.999 39.0015 99.175 38.8955 99.4531L37.3973 103.503L38.9416 104.077ZM41.1035 104.434C41.8318 103.642 42.8597 102.975 43.6295 102.622C43.9799 102.46 44.1043 102.52 44.4316 103.127C44.6851 103.586 44.8557 103.827 44.4685 104.045C43.0395 104.809 41.7304 105.764 41.2049 107.186L40.7485 108.414L38.9508 107.742L39.3979 106.538C39.9188 105.129 39.2504 103.086 38.8632 102.168C38.7295 101.858 38.9554 101.723 39.4302 101.533C40.0387 101.293 40.1631 101.283 40.3152 101.617C40.6333 102.289 41.0113 103.466 41.1035 104.434Z" fill="white"/>
<path d="M26.7587 88.5317C26.9385 88.2769 27.2658 88.4066 27.7636 88.7587C28.2292 89.0877 28.4781 89.3518 28.2983 89.6067L24.9425 94.3884L26.4637 95.468L25.5464 96.7747L24.0252 95.6951L21.8172 98.8459L20.2822 97.757L26.7587 88.5317ZM28.4919 100.551L29.4461 99.1888L26.5882 97.1639C26.3346 96.9832 26.4545 96.7191 26.7449 96.3021C27.0445 95.8758 27.252 95.6766 27.5055 95.8573L30.3634 97.8821L31.1333 96.7886C31.2485 96.6218 31.2254 96.4689 31.0687 96.3577L27.6576 93.939C27.4041 93.7583 27.5239 93.4896 27.8097 93.0772C28.1093 92.6509 28.3168 92.4516 28.5703 92.6324L32.3502 95.3105C32.6406 95.5144 32.8526 96.0843 32.9264 96.506C32.9863 96.9183 32.9863 97.4188 32.8296 97.6412L29.105 102.947L24.5507 99.717C24.2972 99.5363 24.417 99.2675 24.7075 98.8551C25.0025 98.4289 25.2145 98.2296 25.468 98.4103L28.4919 100.556V100.551Z" fill="white"/>
<path d="M14.4239 80.7992C13.737 81.2208 12.8704 80.9706 12.4694 80.2895C12.0683 79.6038 12.285 78.7327 12.9672 78.3295C13.6587 77.9218 14.516 78.1442 14.9217 78.8392C15.3227 79.525 15.1153 80.3868 14.4239 80.7946V80.7992Z" fill="white"/>
<path d="M2.98252 66.518L4.06578 66.3187C4.26399 66.2817 4.35157 66.1565 4.3193 65.9666L3.29136 60.3369C3.23605 60.0264 3.46653 59.9291 3.95975 59.8365C4.46681 59.7438 4.72034 59.7531 4.77565 60.0635L5.28271 62.8436L6.35214 62.6444L5.53163 58.1545C5.4671 57.7931 5.68375 57.6958 6.19081 57.6031C6.71169 57.5058 6.92373 57.5244 6.98827 57.8858L9.02111 69.0154L7.56447 69.2842L6.68864 64.4978L5.61921 64.697L5.87735 66.1102C5.94189 66.4577 5.69758 67.0184 5.45788 67.3705C5.21357 67.7088 4.85402 68.0655 4.58666 68.1165L1.83472 68.6262L0.442621 61.0041C0.387306 60.6937 0.617786 60.5964 1.11101 60.5037C1.61807 60.411 1.8716 60.4203 1.92692 60.7261L2.98713 66.518H2.98252ZM13.6999 62.2598C14.0318 64.0761 13.4325 65.948 11.75 66.2585C10.0675 66.5689 8.84594 65.0306 8.51405 63.2143C8.18216 61.3979 8.78141 59.526 10.4639 59.2156C12.1464 58.9051 13.368 60.4435 13.6999 62.2598ZM9.99373 62.9316C10.1781 63.9417 10.7313 64.558 11.4135 64.4329C12.0957 64.3078 12.3953 63.5294 12.211 62.5193C12.0312 61.537 11.478 60.9207 10.7958 61.0458C10.1136 61.1709 9.81396 61.9493 9.99373 62.9316Z" fill="white"/>
<path d="M0 53.9065L0.668394 45.7191L3.79832 45.9786C4.42062 46.0296 4.71102 46.3122 4.65571 46.9933L4.17631 52.8918C4.15787 53.0956 3.86285 53.4153 3.58167 53.6656C3.25899 53.9528 2.96859 54.1521 2.73811 54.1289L0 53.9019L0 53.9065ZM2.53529 52.2662C2.68279 52.2801 2.79803 52.2199 2.81186 52.0577L3.16219 47.781L1.94065 47.6791L1.57188 52.1875L2.53529 52.2662ZM5.63755 44.6766C5.6606 44.3754 5.84499 44.3105 6.36126 44.3522C6.89137 44.3939 7.03427 44.4912 7.00661 44.7878L6.63323 49.3796L7.56898 49.4583L7.78563 46.8172C7.8179 46.3956 7.98385 46.2566 8.37566 46.289L11.1691 46.5207L10.6436 52.9937L11.0631 53.0261C11.2106 53.04 11.2705 52.9752 11.2843 52.8501L11.7914 46.5948C11.8144 46.3076 12.0357 46.2844 12.5105 46.3261C12.9853 46.3632 13.1973 46.4234 13.1743 46.7107L12.6165 53.5636C12.5935 53.8648 12.3353 54.1845 12.068 54.4254C11.7453 54.7127 11.3996 54.9212 11.1553 54.8981L9.13625 54.7313L9.66174 48.2583L9.0671 48.2073L8.54161 54.6803L7.15873 54.5645L7.42147 51.3349L6.48572 51.2561L6.0893 56.1074L4.72024 55.9962L5.64216 44.6766H5.63755Z" fill="white"/>
<path d="M13.6676 33.1758C13.7921 32.8283 14.0779 32.8747 14.5665 33.0461C15.0643 33.2222 15.2902 33.3612 15.1704 33.7087L11.4043 44.375L9.90619 43.8421L11.5242 39.255L9.70336 38.6063L9.19631 40.0473C9.08107 40.3716 8.69386 40.6497 8.31587 40.8211C7.95171 40.9972 7.3709 41.2103 7.14042 41.1269L2.77051 39.5654L3.39741 37.7862L4.89554 38.319L6.42132 34.0006L4.9232 33.4677L5.5501 31.6885L10.4317 33.4307C11.0448 33.6484 11.3075 34.0608 11.0862 34.6817L10.3303 36.8224L12.1511 37.4711L13.6722 33.1666L13.6676 33.1758ZM7.47692 39.255C7.69357 39.3337 7.79959 39.2828 7.87796 39.065L9.29772 35.0431L7.88718 34.5381L6.36139 38.8565L7.47692 39.255Z" fill="white"/>
<path d="M9.71237 27.3096L8.46777 26.4478L10.4361 23.5797L9.36204 22.8337L10.39 21.3371L11.464 22.0831L13.3033 19.4049C13.5107 19.0991 13.7458 19.1964 14.1699 19.4929C14.6078 19.7941 14.7553 19.9655 14.5478 20.2667L9.71237 27.3096ZM17.1707 25.952L18.088 26.5868L20.6648 22.829C20.8722 22.5232 21.1396 22.6437 21.5637 22.9403C22.0016 23.2414 22.1814 23.436 21.9739 23.7372L15.5804 33.0505L14.2713 32.1424L17.0186 28.139L16.1105 27.5089C15.0687 28.5977 13.7366 28.9684 12.6395 28.2085C11.3396 27.3096 11.4133 25.5165 12.5012 23.9318C13.5891 22.3472 15.2301 21.6382 16.53 22.5418C17.5948 23.2785 17.7423 24.6268 17.1615 25.952H17.1707ZM13.7319 24.7797C13.2157 25.535 13.1972 26.3042 13.7135 26.6609C14.2298 27.0177 14.9397 26.7304 15.4559 25.9752C15.9722 25.2199 15.9907 24.4508 15.4744 24.094C14.9581 23.7372 14.2482 24.0245 13.7319 24.7797Z" fill="white"/>
<path d="M20.4571 16.3327C20.789 17.3567 20.8628 18.5846 20.7982 19.4325C20.766 19.8171 20.6553 19.8959 19.9685 19.8866C19.4476 19.8866 19.1572 19.9191 19.1526 19.4696C19.1895 17.8432 19.0005 16.2262 18.0232 15.0724L17.1797 14.0716L18.6409 12.8252L19.4707 13.8028C20.4387 14.9473 22.5361 15.3597 23.5225 15.4709C23.859 15.508 23.8636 15.7721 23.7945 16.2771C23.7023 16.9304 23.6562 17.0417 23.292 17.0139C22.5545 16.9629 21.3468 16.7219 20.4617 16.3281L20.4571 16.3327ZM21.8216 14.6137L20.7936 13.3951L22.0474 12.3248L20.7106 10.7401L22.0382 9.60489L27.1918 15.6979C27.3854 15.925 27.201 16.1752 26.7677 16.5459C26.3436 16.9073 26.0624 17.0602 25.8688 16.8331L23.0846 13.5434L21.8308 14.6137H21.8216ZM22.6052 8.93767L23.9604 7.7793L29.2891 14.0808C29.4827 14.3079 29.2891 14.5674 28.842 14.9473C28.4179 15.3087 28.1229 15.4709 27.9293 15.2439L22.6006 8.9423L22.6052 8.93767ZM30.9071 16.1567C31.133 15.962 31.3773 16.1659 31.6769 16.5181C32.0042 16.9026 32.1287 17.1343 31.9028 17.3336L26.9843 21.5408C26.717 21.7725 26.1316 21.842 25.7213 21.7956C25.3064 21.7725 24.827 21.6242 24.6611 21.4296L22.785 19.2101L24.1955 18.0054L25.9149 20.0349C26.0486 20.1924 26.1915 20.1924 26.3482 20.0581L30.9163 16.152L30.9071 16.1567Z" fill="white"/>
<path d="M29.9713 7.18634L30.6904 8.68759L33.8388 7.16317C34.12 7.0288 34.2951 7.26047 34.5118 7.71919C34.7377 8.18717 34.8114 8.46982 34.5302 8.60419L31.3819 10.1286L31.9581 11.3333C32.0457 11.5187 32.1932 11.5696 32.3637 11.4862L36.1252 9.66526C36.4064 9.53089 36.5815 9.76256 36.7982 10.2213C37.024 10.6893 37.0978 10.9719 36.8166 11.1063L32.6495 13.1218C32.3315 13.2747 31.7322 13.1867 31.3312 13.0477C30.944 12.8994 30.5107 12.6585 30.3908 12.4083L27.5928 6.56082L32.6173 4.13286C32.8984 3.99849 33.0736 4.23017 33.2903 4.68888C33.5161 5.15687 33.5899 5.43951 33.3087 5.57388L29.9759 7.18634H29.9713ZM41.2603 11.5094C41.3939 11.792 41.1266 12.0144 40.5734 12.2832C40.0572 12.5334 39.7114 12.6261 39.5778 12.3434L37.0563 7.0705L35.3784 7.88136L34.687 6.44034L36.3649 5.62948L34.7008 2.15436L36.3925 1.33887L41.2603 11.5094Z" fill="white"/>
<path d="M53.9924 4.42455C53.9601 3.61832 54.6009 2.97427 55.3891 2.96037C56.1773 2.94183 56.8319 3.55809 56.8457 4.35042C56.8642 5.15664 56.2511 5.8007 55.449 5.8146C54.6608 5.83313 54.0108 5.23078 53.9924 4.42455Z" fill="white"/>
</svg>
