<svg width="190" height="38" viewBox="0 0 190 38" fill="none" xmlns="http://www.w3.org/2000/svg">
<path d="M24.1856 23.9757C24.1856 23.0039 23.3948 22.2139 22.4221 22.2139C21.4495 22.2139 20.6587 23.0039 20.6587 23.9757C20.6587 24.9475 21.4495 25.7375 22.4221 25.7375C23.3948 25.7375 24.1856 24.9475 24.1856 23.9757Z" fill="black"/>
<path d="M40.3439 16.7003C40.3143 16.6623 40.2974 16.6158 40.2974 16.5694V13.4471C40.2974 13.3119 40.2847 13.1809 40.2636 13.0499C39.0668 5.89269 31.8481 5.15331 28.7991 5.19556C28.7356 5.20401 28.6764 5.16176 28.6468 5.13218C28.6172 5.10261 28.5834 5.05613 28.5834 4.98431V2.32253C28.5834 1.53245 28.1859 0.805745 27.5262 0.374791C26.858 -0.0561632 26.0207 -0.119539 25.2933 0.205789C18.3368 3.31964 16.1081 8.94317 15.4865 11.1106C15.4738 11.1106 15.4569 11.1106 15.4484 11.1106H15.44C11.1434 11.0177 7.62076 12.2852 4.96924 14.8624C0.41895 19.2861 0.0172053 26.0673 0.000289707 28.0403C-0.0208548 30.7993 1.11249 34.7455 4.36874 36.8031C6.73269 38.2945 9.25734 38.3875 11.6678 37.0819C14.6407 35.4722 16.4887 32.2823 16.4887 28.7586V16.7341H14.3743V28.7586C14.3743 31.5049 12.9534 33.985 10.6613 35.2229C8.91057 36.1693 7.22324 36.1017 5.49785 35.0159C3.13813 33.5244 2.09782 30.4486 2.11474 28.0572C2.12742 26.2912 2.47842 20.2325 6.44512 16.3792C8.67798 14.2076 11.6974 13.1513 15.4104 13.2231H15.44H15.4654C15.8206 13.2105 24.1092 13.1133 26.7988 23.4646C27.0525 24.4406 27.9025 25.1377 28.909 25.2011L34.8929 25.556C34.9859 25.5602 35.0578 25.6109 35.0621 25.6067L35.079 25.7208C35.4088 27.977 36.0262 32.1809 31.5521 34.9018C30.3003 35.6623 28.8583 35.9961 27.3739 35.8609C25.657 35.7046 23.2423 35.1976 21.4746 33.6596L20.0875 35.2525C22.2823 37.1622 25.1622 37.7833 27.1879 37.965C27.467 37.9903 27.7461 38.003 28.0209 38.003C29.6618 38.003 31.2518 37.5594 32.6558 36.7059C38.3225 33.2583 37.519 27.7615 37.1765 25.4124L37.1596 25.3025C37.0116 24.2927 36.115 23.5111 35.0198 23.4477L29.0359 23.0928C28.9471 23.0886 28.8667 23.0252 28.8456 22.9365C26.6254 14.3977 20.8318 12.0232 17.6221 11.3641C18.2607 9.353 20.3032 4.75616 26.1645 2.13663C26.2617 2.09438 26.3378 2.11973 26.3844 2.15353C26.4478 2.19156 26.4774 2.25071 26.4774 2.32676V4.98853C26.4774 5.61384 26.7227 6.19689 27.1625 6.6363C27.6023 7.07148 28.1816 7.3123 28.8033 7.3123H28.8202C31.9242 7.28273 37.2865 8.05169 38.183 13.4006C38.183 13.4175 38.183 13.4344 38.183 13.4513V16.5736C38.183 17.0975 38.3648 17.6129 38.6947 18.0228L40.0437 19.7086L37.4006 22.2647L38.8723 23.7815L41.6887 21.0606C42.3823 20.3972 42.4499 19.3283 41.8494 18.5805L40.3439 16.7003Z" fill="black"/>
<path d="M32.6011 15.5807C32.6011 16.5524 33.3919 17.3425 34.3645 17.3425C35.3372 17.3425 36.128 16.5524 36.128 15.5807C36.128 14.6089 35.3372 13.8188 34.3645 13.8188C33.3919 13.8188 32.6011 14.6089 32.6011 15.5807Z" fill="black"/>
<path d="M63.514 19.9746C60.0886 19.9746 56.8662 21.6984 56.8662 24.8926C56.8662 28.0867 60.0886 29.8105 63.514 29.8105C66.9394 29.8105 70.1619 28.0867 70.1619 24.8926C70.1619 21.6984 66.9394 19.9746 63.514 19.9746ZM63.5394 26.9966C61.6364 26.9966 60.317 26.1854 60.317 24.8926C60.317 23.5997 61.6364 22.7885 63.5394 22.7885C65.4424 22.7885 66.7111 23.5997 66.7111 24.8926C66.7111 26.1854 65.3917 26.9966 63.5394 26.9966Z" fill="black"/>
<path d="M73.765 16.1975H65.2903V14.1694H70.5426C71.1262 14.1694 71.2277 13.7131 71.2277 12.7498C71.2277 11.7865 71.1262 11.3556 70.5426 11.3556H59.9111C59.5559 11.3556 59.3529 11.1528 59.3529 10.7725V8.71915H70.2889C70.8724 8.71915 70.9739 8.26285 70.9739 7.29954C70.9739 6.33623 70.8724 5.90527 70.2889 5.90527H55.9022V11.1274C55.9022 11.6344 56.435 12.4203 56.9678 12.978C57.5261 13.5357 58.4649 14.1694 59.1246 14.1694H61.7888V16.1975H52.7559V18.9606H73.765C74.4501 18.9606 74.5516 18.5804 74.5516 17.5917C74.5516 16.6031 74.4501 16.1975 73.765 16.1975Z" fill="black"/>
<path d="M97.4383 14.9805H76.353V17.5408H85.3859V19.29H79.3725V21.8757H91.4248V22.9911H79.3725V26.7683C79.3725 27.2246 79.8038 27.833 80.3874 28.3907C80.8695 28.847 81.5038 29.278 82.062 29.278H94.8248C95.3577 29.278 95.4338 28.8724 95.4338 27.9851C95.4338 27.0979 95.3577 26.6923 94.8248 26.6923H83.1785C82.9501 26.6923 82.8232 26.5909 82.8232 26.312V25.5262H94.8756V20.304C94.8756 19.5689 94.5965 19.29 93.8099 19.29H88.8875V17.5408H97.4383C97.9965 17.5408 98.1487 17.262 98.1487 16.2733C98.1487 15.2847 97.9965 14.9805 97.4383 14.9805Z" fill="black"/>
<path d="M80.4891 12.5217C80.9965 13.0033 81.6309 13.5103 82.0115 13.5103H92.9981C94.2668 13.5103 94.7489 12.9273 94.7489 11.7612V5.90527H79.4995V11.026C79.4995 11.457 79.9055 11.964 80.4891 12.5217ZM82.9249 8.56705H91.3235V10.8486H83.3563C83.0518 10.8486 82.9249 10.6458 82.9249 10.3669V8.56705Z" fill="black"/>
<path d="M120.959 22.5857H112.485V18.9859H116.697C117.915 18.9859 118.473 18.2761 118.473 17.0593V7.40088H114.971V10.3669H106.471V7.40088H102.97V16.0453C102.97 16.5016 103.705 17.3889 104.238 17.9212C104.771 18.4789 105.507 18.9859 106.141 18.9859H108.983V22.5857H99.9502V25.5516H120.959C121.644 25.5516 121.746 25.07 121.746 24.0813C121.746 23.0927 121.644 22.5857 120.959 22.5857ZM107.055 16.0707C106.623 16.0707 106.471 15.9186 106.471 15.4876V13.2821H114.971V16.0707H107.055Z" fill="black"/>
<path d="M142.781 9.35275C142.781 8.38944 142.679 7.93313 141.994 7.93313H135.955V5.49951H132.581V7.93313H126.11V10.747H141.994C142.679 10.747 142.781 10.3414 142.781 9.35275Z" fill="black"/>
<path d="M144.557 22.8393H136.082V20.7606C138.721 20.2536 140.624 18.6058 140.624 16.1976C140.624 13.2569 137.808 11.4824 134.23 11.4824C130.652 11.4824 127.836 13.2569 127.836 16.1976C127.836 18.6819 129.815 20.3297 132.581 20.786V22.8393H123.548V25.8053H144.557C145.242 25.8053 145.344 25.3236 145.344 24.335C145.344 23.3463 145.242 22.8393 144.557 22.8393ZM131.337 16.1976C131.337 15.0315 132.53 14.2456 134.23 14.2456C135.93 14.2456 137.123 15.0315 137.123 16.1976C137.123 17.3637 135.93 18.1495 134.23 18.1495C132.53 18.1495 131.337 17.3637 131.337 16.1976Z" fill="black"/>
<path d="M159.578 21.014C159.578 21.5717 160.162 21.6984 161.202 21.6984C162.242 21.6984 162.826 21.5717 162.826 21.014V6.18408H159.578V10.0373H156.508V13.0033H159.578V21.014Z" fill="black"/>
<path d="M155.696 18.1745C156.178 18.6561 156.381 18.5547 157.294 17.7435C158.005 17.1098 158.309 16.7295 157.878 16.2732C156.609 14.9297 154.123 11.8116 154.123 9.02306V6.64014H150.545V9.07376C150.545 11.8876 148.87 14.3973 146.866 16.6535C146.333 17.2872 146.79 17.5914 147.526 18.2252C148.49 19.0618 148.743 19.0871 149.251 18.5801C150.367 17.4647 151.738 15.6395 152.499 13.7889C153.285 15.4113 154.706 17.2112 155.696 18.1745Z" fill="black"/>
<path d="M166.099 21.952C167.19 21.952 167.774 21.8253 167.774 21.2676V5.93066H164.45V21.2676C164.45 21.8253 165.059 21.952 166.099 21.952Z" fill="black"/>
<path d="M167.57 26.1602H156.381C156 26.1602 155.797 25.9827 155.797 25.6025V20.6592H152.346V26.0588C152.346 26.5404 152.854 27.3263 153.412 27.8586C153.945 28.4164 154.858 29.0248 155.518 29.0248H167.57C168.128 29.0248 168.23 28.5431 168.23 27.6051C168.23 26.7432 168.128 26.1602 167.57 26.1602Z" fill="black"/>
<path d="M186.499 6.18408V13.3328H183.023V16.2988H186.499V27.1487C186.499 27.7318 187.159 27.8585 188.224 27.8585C189.366 27.8585 190.001 27.7064 190.001 27.1234V6.18408H186.499Z" fill="black"/>
<path d="M182.845 19.8987H175.055C174.7 19.8987 174.497 19.6959 174.497 19.3156V16.8313H181.018C181.602 16.8313 181.703 16.299 181.703 15.3357C181.703 14.3724 181.602 13.8653 181.018 13.8653H174.497V10.7726H181.399C181.982 10.7726 182.084 10.2403 182.084 9.27695C182.084 8.31365 181.982 7.80664 181.399 7.80664H170.996V19.848C170.996 20.355 171.528 21.1155 172.061 21.6732C172.619 22.2309 173.558 22.8647 174.218 22.8647H182.845C183.429 22.8647 183.53 22.3323 183.53 21.369C183.53 20.4057 183.429 19.8987 182.845 19.8987Z" fill="black"/>
</svg>
