<svg width="190" height="38" viewBox="0 0 190 38" fill="none" xmlns="http://www.w3.org/2000/svg">
<g clip-path="url(#clip0_17_410)">
<path d="M40.3435 16.7018C40.3139 16.6638 40.2969 16.6173 40.2969 16.5708V13.4485C40.2969 13.3133 40.2842 13.1823 40.2631 13.0514C39.0663 5.89416 31.8476 5.15477 28.7986 5.19702C28.7351 5.20547 28.6759 5.16322 28.6463 5.13365C28.6167 5.10407 28.5829 5.0576 28.5829 4.98577V2.324C28.5829 1.53392 28.1854 0.80721 27.5257 0.376256C26.8575 -0.0546983 26.0202 -0.118074 25.2928 0.207254C18.3363 3.32111 16.1077 8.94463 15.486 11.1121C15.4733 11.1121 15.4564 11.1121 15.448 11.1121H15.4395C11.1429 11.0191 7.62027 12.2866 4.96875 14.8639C0.418462 19.2875 0.016717 26.0687 -0.000198575 28.0418C-0.021343 30.8008 1.112 34.7469 4.36825 36.8045C6.7322 38.296 9.25685 38.3889 11.6673 37.0834C14.6402 35.4736 16.4883 32.2837 16.4883 28.7601V16.7356H14.3738V28.7601C14.3738 31.5063 12.9529 33.9864 10.6608 35.2244C8.91008 36.1708 7.22275 36.1032 5.49736 35.0173C3.13764 33.5259 2.09733 30.4501 2.11425 28.0587C2.12694 26.2926 2.47793 20.2339 6.44464 16.3807C8.67749 14.209 11.6969 13.1528 15.4099 13.2246H15.4395H15.4649C15.8201 13.2119 24.1087 13.1147 26.7983 23.4661C27.052 24.4421 27.902 25.1392 28.9085 25.2026L34.8924 25.5575C34.9854 25.5617 35.0573 25.6124 35.0616 25.6082L35.0785 25.7223C35.4083 27.9784 36.0258 32.1823 31.5516 34.9033C30.2998 35.6638 28.8578 35.9976 27.3734 35.8624C25.6565 35.706 23.2418 35.199 21.4741 33.6611L20.087 35.2539C22.2818 37.1637 25.1617 37.7847 27.1874 37.9664C27.4665 37.9918 27.7456 38.0044 28.0205 38.0044C29.6613 38.0044 31.2513 37.5608 32.6553 36.7074C38.322 33.2597 37.5186 27.763 37.176 25.4138L37.1591 25.304C37.0111 24.2942 36.1146 23.5126 35.0193 23.4492L29.0354 23.0943C28.9466 23.0901 28.8662 23.0267 28.8451 22.938C26.6249 14.3992 20.8313 12.0247 17.6216 11.3656C18.2602 9.35446 20.3027 4.75762 26.164 2.1381C26.2612 2.09585 26.3374 2.1212 26.3839 2.155C26.4473 2.19302 26.4769 2.25217 26.4769 2.32822V4.99C26.4769 5.6153 26.7222 6.19836 27.162 6.63776C27.6018 7.07294 28.1812 7.31377 28.8028 7.31377H28.8197C31.9237 7.28419 37.286 8.05315 38.1825 13.402C38.1825 13.4189 38.1825 13.4359 38.1825 13.4528V16.5751C38.1825 17.099 38.3643 17.6144 38.6942 18.0242L40.0432 19.71L37.4001 22.2662L38.8718 23.783L41.6882 21.062C42.3818 20.3987 42.4494 19.3298 41.8489 18.5819L40.3435 16.7018Z" fill="white"/>
<path d="M32.6006 15.5822C32.6006 16.5539 33.3914 17.344 34.364 17.344C35.3367 17.344 36.1275 16.5539 36.1275 15.5822C36.1275 14.6104 35.3367 13.8203 34.364 13.8203C33.3914 13.8203 32.6006 14.6104 32.6006 15.5822Z" fill="white"/>
<path d="M24.1851 23.9772C24.1851 23.0054 23.3943 22.2153 22.4217 22.2153C21.449 22.2153 20.6582 23.0054 20.6582 23.9772C20.6582 24.9489 21.449 25.739 22.4217 25.739C23.3943 25.739 24.1851 24.9489 24.1851 23.9772Z" fill="white"/>
<path d="M63.5135 19.9761C60.0881 19.9761 56.8657 21.6999 56.8657 24.894C56.8657 28.0881 60.0881 29.812 63.5135 29.812C66.9389 29.812 70.1614 28.0881 70.1614 24.894C70.1614 21.6999 66.9389 19.9761 63.5135 19.9761ZM63.5389 26.9981C61.6359 26.9981 60.3165 26.1869 60.3165 24.894C60.3165 23.6012 61.6359 22.79 63.5389 22.79C65.4419 22.79 66.7106 23.6012 66.7106 24.894C66.7106 26.1869 65.3912 26.9981 63.5389 26.9981Z" fill="white"/>
<path d="M73.7645 16.1989H65.2898V14.1709H70.5421C71.1257 14.1709 71.2272 13.7146 71.2272 12.7513C71.2272 11.788 71.1257 11.357 70.5421 11.357H59.9107C59.5554 11.357 59.3524 11.1542 59.3524 10.774V8.72061H70.2884C70.872 8.72061 70.9734 8.26431 70.9734 7.301C70.9734 6.33769 70.872 5.90674 70.2884 5.90674H55.9017V11.1289C55.9017 11.6359 56.4345 12.4217 56.9674 12.9795C57.5256 13.5372 58.4644 14.1709 59.1241 14.1709H61.7883V16.1989H52.7554V18.9621H73.7645C74.4496 18.9621 74.5511 18.5819 74.5511 17.5932C74.5511 16.6045 74.4496 16.1989 73.7645 16.1989Z" fill="white"/>
<path d="M97.4378 14.9819H76.3525V17.5423H85.3855V19.2915H79.372V21.8772H91.4243V22.9926H79.372V26.7698C79.372 27.2261 79.8033 27.8345 80.3869 28.3922C80.869 28.8485 81.5033 29.2795 82.0615 29.2795H94.8243C95.3572 29.2795 95.4333 28.8739 95.4333 27.9866C95.4333 27.0993 95.3572 26.6937 94.8243 26.6937H83.178C82.9496 26.6937 82.8227 26.5923 82.8227 26.3135V25.5276H94.8751V20.3055C94.8751 19.5703 94.596 19.2915 93.8094 19.2915H88.887V17.5423H97.4378C97.996 17.5423 98.1483 17.2635 98.1483 16.2748C98.1483 15.2861 97.996 14.9819 97.4378 14.9819Z" fill="white"/>
<path d="M80.4886 12.5231C80.9961 13.0048 81.6304 13.5118 82.011 13.5118H92.9977C94.2663 13.5118 94.7484 12.9288 94.7484 11.7626V5.90674H79.499V11.0275C79.499 11.4584 79.905 11.9654 80.4886 12.5231ZM82.9244 8.56851H91.323V10.85H83.3558C83.0513 10.85 82.9244 10.6472 82.9244 10.3684V8.56851Z" fill="white"/>
<path d="M120.959 22.5871H112.484V18.9874H116.696C117.914 18.9874 118.472 18.2776 118.472 17.0608V7.40234H114.971V10.3683H106.471V7.40234H102.969V16.0468C102.969 16.5031 103.705 17.3903 104.238 17.9227C104.771 18.4804 105.506 18.9874 106.141 18.9874H108.983V22.5871H99.9497V25.5531H120.959C121.644 25.5531 121.745 25.0715 121.745 24.0828C121.745 23.0941 121.644 22.5871 120.959 22.5871ZM107.054 16.0721C106.623 16.0721 106.471 15.92 106.471 15.4891V13.2836H114.971V16.0721H107.054Z" fill="white"/>
<path d="M142.78 9.35421C142.78 8.3909 142.679 7.9346 141.994 7.9346H135.955V5.50098H132.58V7.9346H126.11V10.7485H141.994C142.679 10.7485 142.78 10.3429 142.78 9.35421Z" fill="white"/>
<path d="M144.557 22.8408H136.082V20.7621C138.721 20.2551 140.624 18.6073 140.624 16.199C140.624 13.2584 137.807 11.4839 134.23 11.4839C130.652 11.4839 127.835 13.2584 127.835 16.199C127.835 18.6834 129.815 20.3311 132.58 20.7874V22.8408H123.547V25.8068H144.557C145.242 25.8068 145.343 25.3251 145.343 24.3365C145.343 23.3478 145.242 22.8408 144.557 22.8408ZM131.337 16.199C131.337 15.0329 132.53 14.2471 134.23 14.2471C135.93 14.2471 137.122 15.0329 137.122 16.199C137.122 17.3651 135.93 18.151 134.23 18.151C132.53 18.151 131.337 17.3651 131.337 16.199Z" fill="white"/>
<path d="M159.578 21.0154C159.578 21.5731 160.161 21.6999 161.201 21.6999C162.242 21.6999 162.825 21.5731 162.825 21.0154V6.18555H159.578V10.0388H156.507V13.0048H159.578V21.0154Z" fill="white"/>
<path d="M155.695 18.176C156.177 18.6576 156.38 18.5562 157.294 17.745C158.004 17.1112 158.309 16.731 157.877 16.2747C156.609 14.9311 154.122 11.813 154.122 9.02452V6.6416H150.544V9.07522C150.544 11.8891 148.87 14.3988 146.865 16.6549C146.333 17.2887 146.789 17.5929 147.525 18.2267C148.489 19.0632 148.743 19.0886 149.25 18.5816C150.367 17.4662 151.737 15.6409 152.498 13.7904C153.285 15.4128 154.706 17.2126 155.695 18.176Z" fill="white"/>
<path d="M166.098 21.9535C167.19 21.9535 167.773 21.8267 167.773 21.269V5.93213H164.449V21.269C164.449 21.8267 165.058 21.9535 166.098 21.9535Z" fill="white"/>
<path d="M167.57 26.1616H156.38C155.999 26.1616 155.796 25.9842 155.796 25.6039V20.6606H152.346V26.0602C152.346 26.5419 152.853 27.3278 153.411 27.8601C153.944 28.4178 154.858 29.0262 155.517 29.0262H167.57C168.128 29.0262 168.229 28.5446 168.229 27.6066C168.229 26.7447 168.128 26.1616 167.57 26.1616Z" fill="white"/>
<path d="M186.499 6.18555V13.3343H183.022V16.3003H186.499V27.1502C186.499 27.7332 187.158 27.86 188.224 27.86C189.366 27.86 190 27.7079 190 27.1248V6.18555H186.499Z" fill="white"/>
<path d="M182.844 19.9002H175.055C174.7 19.9002 174.497 19.6974 174.497 19.3171V16.8328H181.018C181.601 16.8328 181.703 16.3004 181.703 15.3371C181.703 14.3738 181.601 13.8668 181.018 13.8668H174.497V10.7741H181.398C181.982 10.7741 182.083 10.2417 182.083 9.27842C182.083 8.31511 181.982 7.80811 181.398 7.80811H170.995V19.8495C170.995 20.3565 171.528 21.117 172.061 21.6747C172.619 22.2324 173.558 22.8661 174.218 22.8661H182.844C183.428 22.8661 183.53 22.3338 183.53 21.3705C183.53 20.4072 183.428 19.9002 182.844 19.9002Z" fill="white"/>
</g>
<defs>
<clipPath id="clip0_17_410">
<rect width="190" height="38" fill="white"/>
</clipPath>
</defs>
</svg>
